<svg width="620" height="614" viewBox="0 0 620 614" fill="none" xmlns="http://www.w3.org/2000/svg">
<ellipse cx="310" cy="307" rx="310" ry="307" fill="#31C6DC"/>
<path d="M158.728 235.293C161.891 235.293 164.734 235.912 167.255 237.15C169.776 238.342 171.748 240.061 173.169 242.308C174.59 244.554 175.3 247.144 175.3 250.078C175.3 253.195 174.521 255.946 172.962 258.33C171.404 260.668 169.295 262.479 166.636 263.762C163.977 265.046 160.997 265.688 157.697 265.688C151.095 265.688 145.961 263.625 142.293 259.499C138.672 255.373 136.861 249.459 136.861 241.757C136.861 236.348 137.846 231.741 139.818 227.936C141.789 224.085 144.54 221.174 148.069 219.202C151.645 217.185 155.771 216.177 160.447 216.177C162.923 216.177 165.238 216.452 167.392 217.002C169.593 217.506 171.495 218.263 173.1 219.271L169.799 226.01C167.415 224.452 164.367 223.672 160.653 223.672C156.023 223.672 152.402 225.093 149.789 227.936C147.176 230.778 145.869 234.881 145.869 240.245V240.313C147.29 238.663 149.101 237.425 151.301 236.6C153.502 235.729 155.977 235.293 158.728 235.293ZM157.215 258.674C160.012 258.674 162.281 257.94 164.023 256.473C165.765 254.96 166.636 252.966 166.636 250.491C166.636 247.969 165.765 245.975 164.023 244.508C162.281 243.041 159.943 242.308 157.009 242.308C154.121 242.308 151.76 243.087 149.926 244.646C148.138 246.204 147.244 248.175 147.244 250.559C147.244 252.897 148.115 254.846 149.857 256.404C151.645 257.917 154.098 258.674 157.215 258.674ZM192.505 224.429H176.551V216.864H217.398V224.429H201.444V265H192.505V224.429ZM266.878 216.864V265H257.939V244.37H233.046V265H224.106V216.864H233.046V236.738H257.939V216.864H266.878ZM330 253.86H305.933L301.188 265H291.973L313.634 216.864H322.436L344.166 265H334.814L330 253.86ZM327.044 246.846L317.967 225.804L308.958 246.846H327.044ZM370.092 216.864C374.264 216.864 377.885 217.552 380.957 218.927C384.074 220.303 386.458 222.274 388.109 224.841C389.759 227.408 390.584 230.457 390.584 233.987C390.584 237.471 389.759 240.52 388.109 243.133C386.458 245.7 384.074 247.671 380.957 249.046C377.885 250.422 374.264 251.109 370.092 251.109H359.227V265H350.288V216.864H370.092ZM369.68 243.545C373.576 243.545 376.533 242.72 378.55 241.07C380.567 239.419 381.576 237.058 381.576 233.987C381.576 230.915 380.567 228.554 378.55 226.904C376.533 225.254 373.576 224.429 369.68 224.429H359.227V243.545H369.68ZM431.006 265L421.172 250.903C420.76 250.949 420.141 250.972 419.316 250.972H408.451V265H399.511V216.864H419.316C423.487 216.864 427.109 217.552 430.18 218.927C433.298 220.303 435.682 222.274 437.332 224.841C438.982 227.408 439.808 230.457 439.808 233.987C439.808 237.609 438.914 240.726 437.126 243.339C435.384 245.952 432.862 247.9 429.562 249.184L440.633 265H431.006ZM430.799 233.987C430.799 230.915 429.791 228.554 427.774 226.904C425.757 225.254 422.8 224.429 418.903 224.429H408.451V243.614H418.903C422.8 243.614 425.757 242.789 427.774 241.139C429.791 239.442 430.799 237.058 430.799 233.987ZM449.809 216.864H458.749V265H449.809V216.864ZM471.768 216.864H480.708V257.436H505.876V265H471.768V216.864Z" fill="#1B0551"/>
<path d="M154.005 388.572L143.32 373.547C142.118 373.68 140.871 373.747 139.58 373.747H127.026V388.572H122.084V341.826H139.58C145.546 341.826 150.221 343.251 153.604 346.1C156.988 348.949 158.679 352.867 158.679 357.853C158.679 361.504 157.744 364.598 155.875 367.136C154.049 369.629 151.423 371.432 147.995 372.545L159.414 388.572H154.005ZM139.447 369.54C144.077 369.54 147.616 368.516 150.065 366.468C152.513 364.42 153.738 361.549 153.738 357.853C153.738 354.069 152.513 351.175 150.065 349.172C147.616 347.124 144.077 346.1 139.447 346.1H127.026V369.54H139.447ZM199.926 372.478H170.543C170.81 376.129 172.213 379.089 174.75 381.36C177.288 383.586 180.493 384.699 184.367 384.699C186.548 384.699 188.552 384.321 190.377 383.564C192.202 382.762 193.783 381.605 195.118 380.091L197.789 383.163C196.231 385.033 194.272 386.458 191.913 387.437C189.598 388.416 187.038 388.906 184.233 388.906C180.627 388.906 177.422 388.149 174.617 386.636C171.857 385.077 169.697 382.94 168.139 380.225C166.581 377.509 165.802 374.437 165.802 371.009C165.802 367.581 166.536 364.509 168.006 361.793C169.519 359.078 171.567 356.963 174.149 355.449C176.776 353.936 179.714 353.179 182.964 353.179C186.214 353.179 189.13 353.936 191.712 355.449C194.295 356.963 196.32 359.078 197.789 361.793C199.259 364.465 199.993 367.537 199.993 371.009L199.926 372.478ZM182.964 357.252C179.581 357.252 176.731 358.343 174.416 360.525C172.146 362.662 170.855 365.466 170.543 368.939H195.452C195.141 365.466 193.827 362.662 191.512 360.525C189.242 358.343 186.392 357.252 182.964 357.252ZM242.166 353.446V384.298C242.166 390.264 240.697 394.672 237.758 397.521C234.865 400.415 230.479 401.862 224.603 401.862C221.353 401.862 218.259 401.372 215.32 400.392C212.426 399.457 210.067 398.144 208.242 396.452L210.646 392.846C212.337 394.36 214.385 395.54 216.789 396.386C219.238 397.231 221.798 397.654 224.469 397.654C228.921 397.654 232.193 396.608 234.286 394.516C236.378 392.468 237.425 389.262 237.425 384.899V380.425C235.955 382.651 234.019 384.343 231.615 385.5C229.255 386.658 226.628 387.237 223.735 387.237C220.44 387.237 217.435 386.524 214.719 385.1C212.048 383.631 209.933 381.605 208.375 379.023C206.861 376.396 206.105 373.435 206.105 370.141C206.105 366.846 206.861 363.908 208.375 361.326C209.933 358.744 212.048 356.74 214.719 355.316C217.39 353.891 220.396 353.179 223.735 353.179C226.717 353.179 229.411 353.78 231.815 354.982C234.219 356.184 236.156 357.92 237.625 360.191V353.446H242.166ZM224.202 383.03C226.74 383.03 229.032 382.495 231.08 381.427C233.128 380.314 234.709 378.778 235.822 376.819C236.979 374.86 237.558 372.634 237.558 370.141C237.558 367.648 236.979 365.444 235.822 363.53C234.709 361.571 233.128 360.057 231.08 358.989C229.077 357.876 226.784 357.319 224.202 357.319C221.664 357.319 219.372 357.853 217.324 358.922C215.32 359.99 213.74 361.504 212.582 363.463C211.469 365.422 210.913 367.648 210.913 370.141C210.913 372.634 211.469 374.86 212.582 376.819C213.74 378.778 215.32 380.314 217.324 381.427C219.372 382.495 221.664 383.03 224.202 383.03ZM255.425 353.446H260.166V388.572H255.425V353.446ZM257.829 345.766C256.849 345.766 256.026 345.432 255.358 344.765C254.69 344.097 254.356 343.295 254.356 342.36C254.356 341.47 254.69 340.691 255.358 340.023C256.026 339.355 256.849 339.021 257.829 339.021C258.808 339.021 259.632 339.355 260.3 340.023C260.968 340.646 261.302 341.403 261.302 342.294C261.302 343.273 260.968 344.097 260.3 344.765C259.632 345.432 258.808 345.766 257.829 345.766ZM282.775 388.906C279.926 388.906 277.188 388.505 274.561 387.704C271.979 386.858 269.953 385.812 268.484 384.565L270.621 380.826C272.09 381.983 273.938 382.94 276.164 383.697C278.39 384.41 280.705 384.766 283.109 384.766C286.314 384.766 288.674 384.276 290.188 383.297C291.746 382.273 292.525 380.848 292.525 379.023C292.525 377.732 292.102 376.73 291.256 376.018C290.41 375.261 289.342 374.704 288.051 374.348C286.759 373.947 285.045 373.569 282.909 373.213C280.059 372.679 277.766 372.144 276.03 371.61C274.294 371.031 272.802 370.074 271.556 368.739C270.354 367.403 269.753 365.555 269.753 363.196C269.753 360.258 270.977 357.853 273.426 355.984C275.874 354.114 279.28 353.179 283.643 353.179C285.914 353.179 288.184 353.49 290.455 354.114C292.725 354.693 294.595 355.472 296.064 356.451L293.994 360.258C291.1 358.254 287.65 357.252 283.643 357.252C280.616 357.252 278.323 357.787 276.765 358.855C275.251 359.924 274.494 361.326 274.494 363.062C274.494 364.398 274.917 365.466 275.763 366.268C276.653 367.069 277.744 367.67 279.035 368.071C280.326 368.427 282.107 368.805 284.378 369.206C287.182 369.74 289.431 370.275 291.122 370.809C292.814 371.343 294.261 372.256 295.463 373.547C296.665 374.838 297.266 376.619 297.266 378.889C297.266 381.961 295.975 384.41 293.393 386.235C290.855 388.016 287.316 388.906 282.775 388.906ZM324.53 386.435C323.639 387.237 322.526 387.86 321.191 388.305C319.9 388.706 318.542 388.906 317.117 388.906C313.823 388.906 311.285 388.016 309.504 386.235C307.723 384.454 306.833 381.939 306.833 378.689V357.453H300.556V353.446H306.833V345.766H311.574V353.446H322.259V357.453H311.574V378.422C311.574 380.514 312.086 382.117 313.11 383.23C314.179 384.298 315.692 384.833 317.651 384.833C318.631 384.833 319.566 384.677 320.456 384.365C321.391 384.053 322.192 383.608 322.86 383.03L324.53 386.435ZM337.702 360.324C338.815 357.965 340.462 356.184 342.644 354.982C344.87 353.78 347.608 353.179 350.858 353.179V357.787L349.722 357.72C346.027 357.72 343.134 358.855 341.041 361.126C338.949 363.396 337.902 366.579 337.902 370.675V388.572H333.161V353.446H337.702V360.324ZM371.665 353.179C376.251 353.179 379.768 354.336 382.216 356.651C384.665 358.922 385.889 362.305 385.889 366.802V388.572H381.348V383.096C380.28 384.922 378.699 386.346 376.607 387.37C374.559 388.394 372.11 388.906 369.261 388.906C365.343 388.906 362.227 387.971 359.912 386.101C357.597 384.232 356.439 381.761 356.439 378.689C356.439 375.706 357.508 373.302 359.645 371.477C361.826 369.651 365.276 368.739 369.995 368.739H381.148V366.602C381.148 363.574 380.302 361.281 378.61 359.723C376.918 358.121 374.447 357.319 371.198 357.319C368.972 357.319 366.835 357.698 364.787 358.454C362.739 359.167 360.98 360.168 359.511 361.46L357.374 357.92C359.155 356.407 361.292 355.249 363.785 354.448C366.278 353.602 368.905 353.179 371.665 353.179ZM369.995 385.166C372.667 385.166 374.959 384.565 376.874 383.363C378.788 382.117 380.213 380.336 381.148 378.021V372.278H370.129C364.119 372.278 361.114 374.37 361.114 378.555C361.114 380.603 361.893 382.228 363.451 383.43C365.009 384.588 367.191 385.166 369.995 385.166ZM417.265 386.435C416.375 387.237 415.262 387.86 413.926 388.305C412.635 388.706 411.277 388.906 409.853 388.906C406.558 388.906 404.021 388.016 402.24 386.235C400.459 384.454 399.569 381.939 399.569 378.689V357.453H393.291V353.446H399.569V345.766H404.31V353.446H414.995V357.453H404.31V378.422C404.31 380.514 404.822 382.117 405.846 383.23C406.914 384.298 408.428 384.833 410.387 384.833C411.366 384.833 412.301 384.677 413.192 384.365C414.127 384.053 414.928 383.608 415.596 383.03L417.265 386.435ZM425.897 353.446H430.638V388.572H425.897V353.446ZM428.301 345.766C427.321 345.766 426.498 345.432 425.83 344.765C425.162 344.097 424.828 343.295 424.828 342.36C424.828 341.47 425.162 340.691 425.83 340.023C426.498 339.355 427.321 339.021 428.301 339.021C429.28 339.021 430.104 339.355 430.772 340.023C431.439 340.646 431.773 341.403 431.773 342.294C431.773 343.273 431.439 344.097 430.772 344.765C430.104 345.432 429.28 345.766 428.301 345.766ZM458.188 388.906C454.805 388.906 451.755 388.149 449.04 386.636C446.324 385.077 444.187 382.94 442.629 380.225C441.071 377.509 440.291 374.437 440.291 371.009C440.291 367.581 441.071 364.509 442.629 361.793C444.187 359.078 446.324 356.963 449.04 355.449C451.755 353.936 454.805 353.179 458.188 353.179C461.572 353.179 464.622 353.936 467.337 355.449C470.053 356.963 472.168 359.078 473.681 361.793C475.24 364.509 476.019 367.581 476.019 371.009C476.019 374.437 475.24 377.509 473.681 380.225C472.168 382.94 470.053 385.077 467.337 386.636C464.622 388.149 461.572 388.906 458.188 388.906ZM458.188 384.699C460.682 384.699 462.908 384.143 464.866 383.03C466.87 381.872 468.428 380.247 469.541 378.155C470.654 376.062 471.211 373.68 471.211 371.009C471.211 368.338 470.654 365.956 469.541 363.864C468.428 361.771 466.87 360.168 464.866 359.055C462.908 357.898 460.682 357.319 458.188 357.319C455.695 357.319 453.447 357.898 451.444 359.055C449.485 360.168 447.927 361.771 446.769 363.864C445.656 365.956 445.1 368.338 445.1 371.009C445.1 373.68 445.656 376.062 446.769 378.155C447.927 380.247 449.485 381.872 451.444 383.03C453.447 384.143 455.695 384.699 458.188 384.699ZM503.596 353.179C508.003 353.179 511.498 354.47 514.08 357.052C516.707 359.59 518.02 363.307 518.02 368.204V388.572H513.279V368.672C513.279 365.021 512.366 362.239 510.541 360.324C508.716 358.41 506.111 357.453 502.728 357.453C498.943 357.453 495.938 358.588 493.712 360.859C491.531 363.085 490.44 366.179 490.44 370.141V388.572H485.699V353.446H490.24V359.924C491.531 357.787 493.312 356.139 495.582 354.982C497.897 353.78 500.568 353.179 503.596 353.179ZM267.407 465.298V469.572H234.351V422.826H266.406V427.1H239.293V443.728H263.467V447.936H239.293V465.298H267.407ZM295.919 434.179C300.326 434.179 303.821 435.47 306.403 438.052C309.03 440.59 310.343 444.307 310.343 449.204V469.572H305.602V449.672C305.602 446.021 304.689 443.239 302.864 441.324C301.039 439.41 298.434 438.453 295.051 438.453C291.267 438.453 288.261 439.588 286.035 441.859C283.854 444.085 282.763 447.179 282.763 451.141V469.572H278.022V434.446H282.563V440.924C283.854 438.787 285.635 437.139 287.905 435.982C290.22 434.78 292.892 434.179 295.919 434.179ZM355.401 420.021V469.572H350.86V462.627C349.435 464.987 347.543 466.79 345.183 468.036C342.868 469.283 340.242 469.906 337.303 469.906C334.009 469.906 331.026 469.149 328.355 467.636C325.684 466.122 323.591 464.007 322.077 461.292C320.564 458.576 319.807 455.482 319.807 452.009C319.807 448.537 320.564 445.442 322.077 442.727C323.591 440.011 325.684 437.919 328.355 436.449C331.026 434.936 334.009 434.179 337.303 434.179C340.153 434.179 342.712 434.78 344.983 435.982C347.298 437.139 349.19 438.853 350.659 441.124V420.021H355.401ZM337.704 465.699C340.153 465.699 342.356 465.143 344.315 464.03C346.319 462.872 347.877 461.247 348.99 459.155C350.147 457.062 350.726 454.68 350.726 452.009C350.726 449.338 350.147 446.956 348.99 444.864C347.877 442.771 346.319 441.168 344.315 440.055C342.356 438.898 340.153 438.319 337.704 438.319C335.211 438.319 332.963 438.898 330.959 440.055C329 441.168 327.442 442.771 326.285 444.864C325.172 446.956 324.615 449.338 324.615 452.009C324.615 454.68 325.172 457.062 326.285 459.155C327.442 461.247 329 462.872 330.959 464.03C332.963 465.143 335.211 465.699 337.704 465.699ZM378.021 469.906C375.172 469.906 372.434 469.505 369.807 468.704C367.225 467.858 365.2 466.812 363.73 465.565L365.867 461.826C367.337 462.983 369.184 463.94 371.41 464.697C373.636 465.41 375.951 465.766 378.355 465.766C381.561 465.766 383.92 465.276 385.434 464.297C386.992 463.273 387.771 461.848 387.771 460.023C387.771 458.732 387.348 457.73 386.502 457.018C385.657 456.261 384.588 455.704 383.297 455.348C382.006 454.947 380.292 454.569 378.155 454.213C375.306 453.679 373.013 453.144 371.277 452.61C369.54 452.031 368.049 451.074 366.802 449.739C365.6 448.403 364.999 446.555 364.999 444.196C364.999 441.258 366.224 438.853 368.672 436.984C371.121 435.114 374.527 434.179 378.889 434.179C381.16 434.179 383.431 434.49 385.701 435.114C387.972 435.693 389.841 436.472 391.311 437.451L389.24 441.258C386.347 439.254 382.896 438.252 378.889 438.252C375.862 438.252 373.569 438.787 372.011 439.855C370.497 440.924 369.741 442.326 369.741 444.062C369.741 445.398 370.164 446.466 371.009 447.268C371.9 448.069 372.991 448.67 374.282 449.071C375.573 449.427 377.354 449.805 379.624 450.206C382.429 450.74 384.677 451.275 386.369 451.809C388.061 452.343 389.508 453.256 390.71 454.547C391.912 455.838 392.513 457.619 392.513 459.889C392.513 462.961 391.222 465.41 388.639 467.235C386.102 469.016 382.562 469.906 378.021 469.906ZM400.543 422.826H406.153L405.151 455.548H401.478L400.543 422.826ZM403.348 469.906C402.369 469.906 401.523 469.572 400.811 468.904C400.143 468.192 399.809 467.369 399.809 466.434C399.809 465.454 400.143 464.653 400.811 464.03C401.478 463.362 402.324 463.028 403.348 463.028C404.328 463.028 405.151 463.362 405.819 464.03C406.487 464.653 406.821 465.454 406.821 466.434C406.821 467.369 406.487 468.192 405.819 468.904C405.151 469.572 404.328 469.906 403.348 469.906Z" fill="white"/>
</svg>
