<svg width="620" height="614" viewBox="0 0 620 614" fill="none" xmlns="http://www.w3.org/2000/svg">
<ellipse cx="310" cy="307" rx="310" ry="307" fill="#31C6DC"/>
<path d="M153.425 216.177C160.027 216.177 165.138 218.24 168.76 222.366C172.427 226.492 174.261 232.405 174.261 240.107C174.261 245.517 173.275 250.147 171.304 253.998C169.333 257.803 166.559 260.714 162.983 262.731C159.454 264.702 155.351 265.688 150.674 265.688C148.199 265.688 145.861 265.436 143.66 264.931C141.506 264.381 139.626 263.602 138.022 262.593L141.322 255.854C143.706 257.413 146.755 258.192 150.468 258.192C155.098 258.192 158.72 256.771 161.333 253.929C163.946 251.087 165.253 246.984 165.253 241.62V241.551C163.832 243.201 162.021 244.462 159.82 245.333C157.62 246.158 155.144 246.571 152.394 246.571C149.23 246.571 146.388 245.975 143.867 244.783C141.345 243.545 139.374 241.803 137.953 239.557C136.532 237.311 135.821 234.72 135.821 231.786C135.821 228.669 136.601 225.941 138.159 223.603C139.718 221.22 141.827 219.386 144.486 218.102C147.145 216.819 150.124 216.177 153.425 216.177ZM154.113 239.557C157.001 239.557 159.339 238.778 161.127 237.219C162.961 235.66 163.877 233.689 163.877 231.305C163.877 228.967 162.983 227.042 161.196 225.529C159.454 223.97 157.024 223.191 153.906 223.191C151.11 223.191 148.841 223.947 147.099 225.46C145.357 226.927 144.486 228.898 144.486 231.374C144.486 233.895 145.357 235.889 147.099 237.356C148.841 238.823 151.179 239.557 154.113 239.557ZM192.169 224.429H176.215V216.864H217.062V224.429H201.108V265H192.169V224.429ZM266.543 216.864V265H257.603V244.37H232.71V265H223.771V216.864H232.71V236.738H257.603V216.864H266.543ZM329.665 253.86H305.597L300.852 265H291.638L313.299 216.864H322.101L343.83 265H334.478L329.665 253.86ZM326.708 246.846L317.631 225.804L308.623 246.846H326.708ZM369.756 216.864C373.928 216.864 377.55 217.552 380.621 218.927C383.739 220.303 386.122 222.274 387.773 224.841C389.423 227.408 390.248 230.457 390.248 233.987C390.248 237.471 389.423 240.52 387.773 243.133C386.122 245.7 383.739 247.671 380.621 249.046C377.55 250.422 373.928 251.109 369.756 251.109H358.891V265H349.952V216.864H369.756ZM369.344 243.545C373.24 243.545 376.197 242.72 378.214 241.07C380.232 239.419 381.24 237.058 381.24 233.987C381.24 230.915 380.232 228.554 378.214 226.904C376.197 225.254 373.24 224.429 369.344 224.429H358.891V243.545H369.344ZM430.67 265L420.836 250.903C420.424 250.949 419.805 250.972 418.98 250.972H408.115V265H399.175V216.864H418.98C423.152 216.864 426.773 217.552 429.845 218.927C432.962 220.303 435.346 222.274 436.996 224.841C438.647 227.408 439.472 230.457 439.472 233.987C439.472 237.609 438.578 240.726 436.79 243.339C435.048 245.952 432.527 247.9 429.226 249.184L440.297 265H430.67ZM430.464 233.987C430.464 230.915 429.455 228.554 427.438 226.904C425.421 225.254 422.464 224.429 418.567 224.429H408.115V243.614H418.567C422.464 243.614 425.421 242.789 427.438 241.139C429.455 239.442 430.464 237.058 430.464 233.987ZM449.473 216.864H458.413V265H449.473V216.864ZM471.433 216.864H480.372V257.436H505.54V265H471.433V216.864Z" fill="#1B0551"/>
<path d="M226.267 341.826V388.572H221.392V367.002H192.143V388.572H187.201V341.826H192.143V362.662H221.392V341.826H226.267ZM252.811 353.179C257.396 353.179 260.913 354.336 263.362 356.651C265.811 358.922 267.035 362.305 267.035 366.802V388.572H262.494V383.096C261.425 384.922 259.845 386.346 257.753 387.37C255.705 388.394 253.256 388.906 250.407 388.906C246.489 388.906 243.373 387.971 241.057 386.101C238.742 384.232 237.585 381.761 237.585 378.689C237.585 375.706 238.653 373.302 240.79 371.477C242.972 369.651 246.422 368.739 251.141 368.739H262.294V366.602C262.294 363.574 261.448 361.281 259.756 359.723C258.064 358.121 255.593 357.319 252.343 357.319C250.117 357.319 247.98 357.698 245.932 358.454C243.885 359.167 242.126 360.168 240.657 361.46L238.52 357.92C240.301 356.407 242.438 355.249 244.931 354.448C247.424 353.602 250.051 353.179 252.811 353.179ZM251.141 385.166C253.812 385.166 256.105 384.565 258.02 383.363C259.934 382.117 261.359 380.336 262.294 378.021V372.278H251.275C245.265 372.278 242.26 374.37 242.26 378.555C242.26 380.603 243.039 382.228 244.597 383.43C246.155 384.588 248.337 385.166 251.141 385.166ZM294.602 388.906C291.129 388.906 288.013 388.149 285.252 386.636C282.537 385.122 280.4 383.007 278.841 380.292C277.283 377.531 276.504 374.437 276.504 371.009C276.504 367.581 277.283 364.509 278.841 361.793C280.4 359.078 282.537 356.963 285.252 355.449C288.013 353.936 291.129 353.179 294.602 353.179C297.629 353.179 300.322 353.78 302.682 354.982C305.086 356.139 306.978 357.853 308.358 360.124L304.819 362.528C303.661 360.792 302.192 359.501 300.411 358.655C298.631 357.764 296.694 357.319 294.602 357.319C292.064 357.319 289.771 357.898 287.723 359.055C285.72 360.168 284.139 361.771 282.982 363.864C281.869 365.956 281.312 368.338 281.312 371.009C281.312 373.725 281.869 376.129 282.982 378.221C284.139 380.269 285.72 381.872 287.723 383.03C289.771 384.143 292.064 384.699 294.602 384.699C296.694 384.699 298.631 384.276 300.411 383.43C302.192 382.584 303.661 381.293 304.819 379.557L308.358 381.961C306.978 384.232 305.086 385.968 302.682 387.17C300.278 388.327 297.584 388.906 294.602 388.906ZM330.173 370.942L321.892 378.555V388.572H317.151V339.021H321.892V372.612L342.861 353.446H348.738L333.712 367.804L350.14 388.572H344.33L330.173 370.942ZM356.736 353.446H361.478V388.572H356.736V353.446ZM359.14 345.766C358.161 345.766 357.337 345.432 356.669 344.765C356.002 344.097 355.668 343.295 355.668 342.36C355.668 341.47 356.002 340.691 356.669 340.023C357.337 339.355 358.161 339.021 359.14 339.021C360.12 339.021 360.943 339.355 361.611 340.023C362.279 340.646 362.613 341.403 362.613 342.294C362.613 343.273 362.279 344.097 361.611 344.765C360.943 345.432 360.12 345.766 359.14 345.766ZM392.567 353.179C396.975 353.179 400.47 354.47 403.052 357.052C405.679 359.59 406.992 363.307 406.992 368.204V388.572H402.251V368.672C402.251 365.021 401.338 362.239 399.513 360.324C397.687 358.41 395.083 357.453 391.699 357.453C387.915 357.453 384.91 358.588 382.684 360.859C380.502 363.085 379.412 366.179 379.412 370.141V388.572H374.67V353.446H379.211V359.924C380.502 357.787 382.283 356.139 384.554 354.982C386.869 353.78 389.54 353.179 392.567 353.179ZM452.517 353.446V384.298C452.517 390.264 451.047 394.672 448.109 397.521C445.215 400.415 440.83 401.862 434.953 401.862C431.703 401.862 428.609 401.372 425.671 400.392C422.777 399.457 420.418 398.144 418.592 396.452L420.996 392.846C422.688 394.36 424.736 395.54 427.14 396.386C429.589 397.231 432.149 397.654 434.82 397.654C439.272 397.654 442.544 396.608 444.637 394.516C446.729 392.468 447.775 389.262 447.775 384.899V380.425C446.306 382.651 444.369 384.343 441.965 385.5C439.606 386.658 436.979 387.237 434.085 387.237C430.791 387.237 427.786 386.524 425.07 385.1C422.399 383.631 420.284 381.605 418.726 379.023C417.212 376.396 416.455 373.435 416.455 370.141C416.455 366.846 417.212 363.908 418.726 361.326C420.284 358.744 422.399 356.74 425.07 355.316C427.741 353.891 430.746 353.179 434.085 353.179C437.068 353.179 439.762 353.78 442.166 354.982C444.57 356.184 446.506 357.92 447.976 360.191V353.446H452.517ZM434.553 383.03C437.09 383.03 439.383 382.495 441.431 381.427C443.479 380.314 445.06 378.778 446.173 376.819C447.33 374.86 447.909 372.634 447.909 370.141C447.909 367.648 447.33 365.444 446.173 363.53C445.06 361.571 443.479 360.057 441.431 358.989C439.428 357.876 437.135 357.319 434.553 357.319C432.015 357.319 429.722 357.853 427.674 358.922C425.671 359.99 424.091 361.504 422.933 363.463C421.82 365.422 421.264 367.648 421.264 370.141C421.264 372.634 421.82 374.86 422.933 376.819C424.091 378.778 425.671 380.314 427.674 381.427C429.722 382.495 432.015 383.03 434.553 383.03ZM222.977 445.465C226.049 446.132 228.408 447.468 230.055 449.471C231.747 451.43 232.593 453.968 232.593 457.084C232.593 461.091 231.102 464.185 228.119 466.367C225.181 468.504 220.818 469.572 215.03 469.572H193.527V422.826H213.694C218.903 422.826 222.932 423.872 225.782 425.965C228.675 428.057 230.122 431.018 230.122 434.847C230.122 437.429 229.477 439.633 228.186 441.458C226.939 443.239 225.203 444.574 222.977 445.465ZM198.469 426.9V443.862H213.36C217.145 443.862 220.061 443.15 222.109 441.725C224.157 440.256 225.181 438.141 225.181 435.381C225.181 432.621 224.157 430.528 222.109 429.104C220.061 427.634 217.145 426.9 213.36 426.9H198.469ZM214.963 465.499C219.148 465.499 222.309 464.786 224.446 463.362C226.583 461.937 227.651 459.711 227.651 456.684C227.651 450.852 223.422 447.936 214.963 447.936H198.469V465.499H214.963ZM273.456 453.478H244.073C244.34 457.129 245.743 460.089 248.28 462.36C250.818 464.586 254.023 465.699 257.897 465.699C260.078 465.699 262.081 465.321 263.907 464.564C265.732 463.762 267.313 462.605 268.648 461.091L271.319 464.163C269.761 466.033 267.802 467.458 265.443 468.437C263.128 469.416 260.568 469.906 257.763 469.906C254.157 469.906 250.951 469.149 248.147 467.636C245.386 466.077 243.227 463.94 241.669 461.225C240.111 458.509 239.332 455.437 239.332 452.009C239.332 448.581 240.066 445.509 241.535 442.793C243.049 440.078 245.097 437.963 247.679 436.449C250.306 434.936 253.244 434.179 256.494 434.179C259.744 434.179 262.66 434.936 265.242 436.449C267.824 437.963 269.85 440.078 271.319 442.793C272.788 445.465 273.523 448.537 273.523 452.009L273.456 453.478ZM256.494 438.252C253.111 438.252 250.261 439.343 247.946 441.525C245.676 443.662 244.385 446.466 244.073 449.939H268.982C268.67 446.466 267.357 443.662 265.042 441.525C262.771 439.343 259.922 438.252 256.494 438.252ZM315.696 434.446V465.298C315.696 471.264 314.227 475.672 311.288 478.521C308.394 481.415 304.009 482.862 298.133 482.862C294.883 482.862 291.788 482.372 288.85 481.392C285.956 480.457 283.597 479.144 281.771 477.452L284.176 473.846C285.867 475.36 287.915 476.54 290.319 477.386C292.768 478.231 295.328 478.654 297.999 478.654C302.451 478.654 305.723 477.608 307.816 475.516C309.908 473.468 310.954 470.262 310.954 465.899V461.425C309.485 463.651 307.549 465.343 305.144 466.5C302.785 467.658 300.158 468.237 297.264 468.237C293.97 468.237 290.965 467.524 288.249 466.1C285.578 464.631 283.463 462.605 281.905 460.023C280.391 457.396 279.634 454.435 279.634 451.141C279.634 447.846 280.391 444.908 281.905 442.326C283.463 439.744 285.578 437.74 288.249 436.316C290.92 434.891 293.925 434.179 297.264 434.179C300.247 434.179 302.941 434.78 305.345 435.982C307.749 437.184 309.686 438.92 311.155 441.191V434.446H315.696ZM297.732 464.03C300.27 464.03 302.562 463.495 304.61 462.427C306.658 461.314 308.239 459.778 309.352 457.819C310.509 455.86 311.088 453.634 311.088 451.141C311.088 448.648 310.509 446.444 309.352 444.53C308.239 442.571 306.658 441.057 304.61 439.989C302.607 438.876 300.314 438.319 297.732 438.319C295.194 438.319 292.901 438.853 290.854 439.922C288.85 440.99 287.27 442.504 286.112 444.463C284.999 446.422 284.443 448.648 284.443 451.141C284.443 453.634 284.999 455.86 286.112 457.819C287.27 459.778 288.85 461.314 290.854 462.427C292.901 463.495 295.194 464.03 297.732 464.03ZM328.955 434.446H333.696V469.572H328.955V434.446ZM331.359 426.766C330.379 426.766 329.556 426.432 328.888 425.765C328.22 425.097 327.886 424.295 327.886 423.36C327.886 422.47 328.22 421.691 328.888 421.023C329.556 420.355 330.379 420.021 331.359 420.021C332.338 420.021 333.162 420.355 333.83 421.023C334.497 421.646 334.831 422.403 334.831 423.294C334.831 424.273 334.497 425.097 333.83 425.765C333.162 426.432 332.338 426.766 331.359 426.766ZM364.786 434.179C369.193 434.179 372.688 435.47 375.27 438.052C377.897 440.59 379.21 444.307 379.21 449.204V469.572H374.469V449.672C374.469 446.021 373.556 443.239 371.731 441.324C369.906 439.41 367.301 438.453 363.918 438.453C360.134 438.453 357.128 439.588 354.902 441.859C352.721 444.085 351.63 447.179 351.63 451.141V469.572H346.889V434.446H351.43V440.924C352.721 438.787 354.502 437.139 356.772 435.982C359.087 434.78 361.758 434.179 364.786 434.179ZM401.499 469.906C398.649 469.906 395.911 469.505 393.285 468.704C390.703 467.858 388.677 466.812 387.208 465.565L389.345 461.826C390.814 462.983 392.661 463.94 394.887 464.697C397.113 465.41 399.429 465.766 401.833 465.766C405.038 465.766 407.398 465.276 408.911 464.297C410.47 463.273 411.249 461.848 411.249 460.023C411.249 458.732 410.826 457.73 409.98 457.018C409.134 456.261 408.065 455.704 406.774 455.348C405.483 454.947 403.769 454.569 401.632 454.213C398.783 453.679 396.49 453.144 394.754 452.61C393.018 452.031 391.526 451.074 390.28 449.739C389.078 448.403 388.477 446.555 388.477 444.196C388.477 441.258 389.701 438.853 392.15 436.984C394.598 435.114 398.004 434.179 402.367 434.179C404.637 434.179 406.908 434.49 409.178 435.114C411.449 435.693 413.319 436.472 414.788 437.451L412.718 441.258C409.824 439.254 406.374 438.252 402.367 438.252C399.339 438.252 397.047 438.787 395.489 439.855C393.975 440.924 393.218 442.326 393.218 444.062C393.218 445.398 393.641 446.466 394.487 447.268C395.377 448.069 396.468 448.67 397.759 449.071C399.05 449.427 400.831 449.805 403.101 450.206C405.906 450.74 408.154 451.275 409.846 451.809C411.538 452.343 412.985 453.256 414.187 454.547C415.389 455.838 415.99 457.619 415.99 459.889C415.99 462.961 414.699 465.41 412.117 467.235C409.579 469.016 406.04 469.906 401.499 469.906ZM424.021 422.826H429.63L428.629 455.548H424.956L424.021 422.826ZM426.826 469.906C425.846 469.906 425 469.572 424.288 468.904C423.62 468.192 423.286 467.369 423.286 466.434C423.286 465.454 423.62 464.653 424.288 464.03C424.956 463.362 425.802 463.028 426.826 463.028C427.805 463.028 428.629 463.362 429.296 464.03C429.964 464.653 430.298 465.454 430.298 466.434C430.298 467.369 429.964 468.192 429.296 468.904C428.629 469.572 427.805 469.906 426.826 469.906ZM441.368 422.826H446.978L445.976 455.548H442.303L441.368 422.826ZM444.173 469.906C443.193 469.906 442.347 469.572 441.635 468.904C440.967 468.192 440.633 467.369 440.633 466.434C440.633 465.454 440.967 464.653 441.635 464.03C442.303 463.362 443.149 463.028 444.173 463.028C445.152 463.028 445.976 463.362 446.644 464.03C447.311 464.653 447.645 465.454 447.645 466.434C447.645 467.369 447.311 468.192 446.644 468.904C445.976 469.572 445.152 469.906 444.173 469.906Z" fill="white"/>
</svg>
