<svg width="620" height="614" viewBox="0 0 620 614" fill="none" xmlns="http://www.w3.org/2000/svg">
<ellipse cx="310" cy="307" rx="310" ry="307" fill="#31C6DC"/>
<path d="M148.533 216.864V265H139.593V224.36H129.416V216.864H148.533ZM174.722 216.864V265H165.783V224.36H155.606V216.864H174.722ZM197.474 224.429H181.52V216.864H222.367V224.429H206.413V265H197.474V224.429ZM271.848 216.864V265H262.908V244.37H238.015V265H229.076V216.864H238.015V236.738H262.908V216.864H271.848ZM334.97 253.86H310.902L306.157 265H296.943L318.604 216.864H327.406L349.135 265H339.783L334.97 253.86ZM332.013 246.846L322.936 225.804L313.928 246.846H332.013ZM375.061 216.864C379.233 216.864 382.855 217.552 385.926 218.927C389.044 220.303 391.428 222.274 393.078 224.841C394.728 227.408 395.553 230.457 395.553 233.987C395.553 237.471 394.728 240.52 393.078 243.133C391.428 245.7 389.044 247.671 385.926 249.046C382.855 250.422 379.233 251.109 375.061 251.109H364.197V265H355.257V216.864H375.061ZM374.649 243.545C378.546 243.545 381.502 242.72 383.52 241.07C385.537 239.419 386.545 237.058 386.545 233.987C386.545 230.915 385.537 228.554 383.52 226.904C381.502 225.254 378.546 224.429 374.649 224.429H364.197V243.545H374.649ZM435.975 265L426.142 250.903C425.729 250.949 425.11 250.972 424.285 250.972H413.42V265H404.481V216.864H424.285C428.457 216.864 432.078 217.552 435.15 218.927C438.267 220.303 440.651 222.274 442.301 224.841C443.952 227.408 444.777 230.457 444.777 233.987C444.777 237.609 443.883 240.726 442.095 243.339C440.353 245.952 437.832 247.9 434.531 249.184L445.602 265H435.975ZM435.769 233.987C435.769 230.915 434.76 228.554 432.743 226.904C430.726 225.254 427.769 224.429 423.872 224.429H413.42V243.614H423.872C427.769 243.614 430.726 242.789 432.743 241.139C434.76 239.442 435.769 237.058 435.769 233.987ZM454.778 216.864H463.718V265H454.778V216.864ZM476.738 216.864H485.677V257.436H510.845V265H476.738V216.864Z" fill="#1B0551"/>
<path d="M148.383 339.372V378.572H144.295V360.484H119.767V378.572H115.623V339.372H119.767V356.844H144.295V339.372H148.383ZM170.642 348.892C174.487 348.892 177.437 349.863 179.49 351.804C181.543 353.708 182.57 356.546 182.57 360.316V378.572H178.762V373.98C177.866 375.511 176.541 376.706 174.786 377.564C173.069 378.423 171.015 378.852 168.626 378.852C165.341 378.852 162.727 378.068 160.786 376.5C158.845 374.932 157.874 372.86 157.874 370.284C157.874 367.783 158.77 365.767 160.562 364.236C162.391 362.706 165.285 361.94 169.242 361.94H178.594V360.148C178.594 357.61 177.885 355.687 176.466 354.38C175.047 353.036 172.975 352.364 170.25 352.364C168.383 352.364 166.591 352.682 164.874 353.316C163.157 353.914 161.682 354.754 160.45 355.836L158.658 352.868C160.151 351.599 161.943 350.628 164.034 349.956C166.125 349.247 168.327 348.892 170.642 348.892ZM169.242 375.716C171.482 375.716 173.405 375.212 175.01 374.204C176.615 373.159 177.81 371.666 178.594 369.724V364.908H169.354C164.314 364.908 161.794 366.663 161.794 370.172C161.794 371.89 162.447 373.252 163.754 374.26C165.061 375.231 166.89 375.716 169.242 375.716ZM205.687 378.852C202.775 378.852 200.161 378.218 197.847 376.948C195.569 375.679 193.777 373.906 192.471 371.628C191.164 369.314 190.511 366.719 190.511 363.844C190.511 360.97 191.164 358.394 192.471 356.116C193.777 353.839 195.569 352.066 197.847 350.796C200.161 349.527 202.775 348.892 205.687 348.892C208.225 348.892 210.484 349.396 212.463 350.404C214.479 351.375 216.065 352.812 217.223 354.716L214.255 356.732C213.284 355.276 212.052 354.194 210.559 353.484C209.065 352.738 207.441 352.364 205.687 352.364C203.559 352.364 201.636 352.85 199.919 353.82C198.239 354.754 196.913 356.098 195.943 357.852C195.009 359.607 194.543 361.604 194.543 363.844C194.543 366.122 195.009 368.138 195.943 369.892C196.913 371.61 198.239 372.954 199.919 373.924C201.636 374.858 203.559 375.324 205.687 375.324C207.441 375.324 209.065 374.97 210.559 374.26C212.052 373.551 213.284 372.468 214.255 371.012L217.223 373.028C216.065 374.932 214.479 376.388 212.463 377.396C210.447 378.367 208.188 378.852 205.687 378.852ZM235.516 363.788L228.572 370.172V378.572H224.596V337.02H228.572V365.188L246.156 349.116H251.084L238.484 361.156L252.26 378.572H247.388L235.516 363.788ZM257.791 349.116H261.767V378.572H257.791V349.116ZM259.807 342.676C258.986 342.676 258.295 342.396 257.735 341.836C257.175 341.276 256.895 340.604 256.895 339.82C256.895 339.074 257.175 338.42 257.735 337.86C258.295 337.3 258.986 337.02 259.807 337.02C260.629 337.02 261.319 337.3 261.879 337.86C262.439 338.383 262.719 339.018 262.719 339.764C262.719 340.586 262.439 341.276 261.879 341.836C261.319 342.396 260.629 342.676 259.807 342.676ZM287.838 348.892C291.534 348.892 294.465 349.975 296.63 352.14C298.833 354.268 299.934 357.386 299.934 361.492V378.572H295.958V361.884C295.958 358.823 295.193 356.49 293.662 354.884C292.132 353.279 289.948 352.476 287.11 352.476C283.937 352.476 281.417 353.428 279.55 355.332C277.721 357.199 276.806 359.794 276.806 363.116V378.572H272.83V349.116H276.638V354.548C277.721 352.756 279.214 351.375 281.118 350.404C283.06 349.396 285.3 348.892 287.838 348.892ZM338.11 349.116V374.988C338.11 379.991 336.878 383.687 334.414 386.076C331.987 388.503 328.31 389.716 323.382 389.716C320.657 389.716 318.062 389.306 315.598 388.484C313.171 387.7 311.193 386.599 309.662 385.18L311.678 382.156C313.097 383.426 314.814 384.415 316.83 385.124C318.883 385.834 321.03 386.188 323.27 386.188C327.003 386.188 329.747 385.311 331.502 383.556C333.257 381.839 334.134 379.151 334.134 375.492V371.74C332.902 373.607 331.278 375.026 329.262 375.996C327.283 376.967 325.081 377.452 322.654 377.452C319.891 377.452 317.371 376.855 315.094 375.66C312.854 374.428 311.081 372.73 309.774 370.564C308.505 368.362 307.87 365.879 307.87 363.116C307.87 360.354 308.505 357.89 309.774 355.724C311.081 353.559 312.854 351.879 315.094 350.684C317.334 349.49 319.854 348.892 322.654 348.892C325.155 348.892 327.414 349.396 329.43 350.404C331.446 351.412 333.07 352.868 334.302 354.772V349.116H338.11ZM323.046 373.924C325.174 373.924 327.097 373.476 328.814 372.58C330.531 371.647 331.857 370.359 332.79 368.716C333.761 367.074 334.246 365.207 334.246 363.116C334.246 361.026 333.761 359.178 332.79 357.572C331.857 355.93 330.531 354.66 328.814 353.764C327.134 352.831 325.211 352.364 323.046 352.364C320.918 352.364 318.995 352.812 317.278 353.708C315.598 354.604 314.273 355.874 313.302 357.516C312.369 359.159 311.902 361.026 311.902 363.116C311.902 365.207 312.369 367.074 313.302 368.716C314.273 370.359 315.598 371.647 317.278 372.58C318.995 373.476 320.918 373.924 323.046 373.924ZM375.533 378.908C372.621 378.908 369.821 378.442 367.133 377.508C364.482 376.575 362.429 375.343 360.973 373.812L362.597 370.62C364.016 372.039 365.901 373.196 368.253 374.092C370.605 374.951 373.032 375.38 375.533 375.38C379.042 375.38 381.674 374.746 383.429 373.476C385.184 372.17 386.061 370.49 386.061 368.436C386.061 366.868 385.576 365.618 384.605 364.684C383.672 363.751 382.514 363.042 381.133 362.556C379.752 362.034 377.829 361.474 375.365 360.876C372.416 360.13 370.064 359.42 368.309 358.748C366.554 358.039 365.042 356.975 363.773 355.556C362.541 354.138 361.925 352.215 361.925 349.788C361.925 347.81 362.448 346.018 363.493 344.412C364.538 342.77 366.144 341.463 368.309 340.492C370.474 339.522 373.162 339.036 376.373 339.036C378.613 339.036 380.797 339.354 382.925 339.988C385.09 340.586 386.957 341.426 388.525 342.508L387.125 345.812C385.482 344.73 383.728 343.927 381.861 343.404C379.994 342.844 378.165 342.564 376.373 342.564C372.938 342.564 370.344 343.236 368.589 344.58C366.872 345.887 366.013 347.586 366.013 349.676C366.013 351.244 366.48 352.514 367.413 353.484C368.384 354.418 369.578 355.146 370.997 355.668C372.453 356.154 374.394 356.695 376.821 357.292C379.696 358.002 382.01 358.711 383.765 359.42C385.557 360.092 387.069 361.138 388.301 362.556C389.533 363.938 390.149 365.823 390.149 368.212C390.149 370.191 389.608 372.002 388.525 373.644C387.48 375.25 385.856 376.538 383.653 377.508C381.45 378.442 378.744 378.908 375.533 378.908ZM413.85 376.78C413.103 377.452 412.17 377.975 411.05 378.348C409.967 378.684 408.829 378.852 407.634 378.852C404.871 378.852 402.743 378.106 401.25 376.612C399.757 375.119 399.01 373.01 399.01 370.284V352.476H393.746V349.116H399.01V342.676H402.986V349.116H411.946V352.476H402.986V370.06C402.986 371.815 403.415 373.159 404.274 374.092C405.17 374.988 406.439 375.436 408.082 375.436C408.903 375.436 409.687 375.306 410.434 375.044C411.218 374.783 411.89 374.41 412.45 373.924L413.85 376.78ZM432.089 378.852C429.252 378.852 426.694 378.218 424.417 376.948C422.14 375.642 420.348 373.85 419.041 371.572C417.734 369.295 417.081 366.719 417.081 363.844C417.081 360.97 417.734 358.394 419.041 356.116C420.348 353.839 422.14 352.066 424.417 350.796C426.694 349.527 429.252 348.892 432.089 348.892C434.926 348.892 437.484 349.527 439.761 350.796C442.038 352.066 443.812 353.839 445.081 356.116C446.388 358.394 447.041 360.97 447.041 363.844C447.041 366.719 446.388 369.295 445.081 371.572C443.812 373.85 442.038 375.642 439.761 376.948C437.484 378.218 434.926 378.852 432.089 378.852ZM432.089 375.324C434.18 375.324 436.046 374.858 437.689 373.924C439.369 372.954 440.676 371.591 441.609 369.836C442.542 368.082 443.009 366.084 443.009 363.844C443.009 361.604 442.542 359.607 441.609 357.852C440.676 356.098 439.369 354.754 437.689 353.82C436.046 352.85 434.18 352.364 432.089 352.364C429.998 352.364 428.113 352.85 426.433 353.82C424.79 354.754 423.484 356.098 422.513 357.852C421.58 359.607 421.113 361.604 421.113 363.844C421.113 366.084 421.58 368.082 422.513 369.836C423.484 371.591 424.79 372.954 426.433 373.924C428.113 374.858 429.998 375.324 432.089 375.324ZM470.334 348.892C473.097 348.892 475.598 349.527 477.838 350.796C480.078 352.028 481.833 353.783 483.102 356.06C484.372 358.338 485.006 360.932 485.006 363.844C485.006 366.794 484.372 369.407 483.102 371.684C481.833 373.962 480.078 375.735 477.838 377.004C475.636 378.236 473.134 378.852 470.334 378.852C467.945 378.852 465.78 378.367 463.838 377.396C461.934 376.388 460.366 374.932 459.134 373.028V389.436H455.158V349.116H458.966V354.94C460.161 352.999 461.729 351.506 463.67 350.46C465.649 349.415 467.87 348.892 470.334 348.892ZM470.054 375.324C472.108 375.324 473.974 374.858 475.654 373.924C477.334 372.954 478.641 371.591 479.574 369.836C480.545 368.082 481.03 366.084 481.03 363.844C481.03 361.604 480.545 359.626 479.574 357.908C478.641 356.154 477.334 354.791 475.654 353.82C473.974 352.85 472.108 352.364 470.054 352.364C467.964 352.364 466.078 352.85 464.398 353.82C462.756 354.791 461.449 356.154 460.478 357.908C459.545 359.626 459.078 361.604 459.078 363.844C459.078 366.084 459.545 368.082 460.478 369.836C461.449 371.591 462.756 372.954 464.398 373.924C466.078 374.858 467.964 375.324 470.054 375.324ZM501.008 378.852C498.618 378.852 496.322 378.516 494.12 377.844C491.954 377.135 490.256 376.258 489.024 375.212L490.816 372.076C492.048 373.047 493.597 373.85 495.464 374.484C497.33 375.082 499.272 375.38 501.288 375.38C503.976 375.38 505.954 374.97 507.224 374.148C508.53 373.29 509.184 372.095 509.184 370.564C509.184 369.482 508.829 368.642 508.12 368.044C507.41 367.41 506.514 366.943 505.432 366.644C504.349 366.308 502.912 365.991 501.12 365.692C498.73 365.244 496.808 364.796 495.352 364.348C493.896 363.863 492.645 363.06 491.6 361.94C490.592 360.82 490.088 359.271 490.088 357.292C490.088 354.828 491.114 352.812 493.168 351.244C495.221 349.676 498.077 348.892 501.736 348.892C503.64 348.892 505.544 349.154 507.448 349.676C509.352 350.162 510.92 350.815 512.152 351.636L510.416 354.828C507.989 353.148 505.096 352.308 501.736 352.308C499.197 352.308 497.274 352.756 495.968 353.652C494.698 354.548 494.064 355.724 494.064 357.18C494.064 358.3 494.418 359.196 495.128 359.868C495.874 360.54 496.789 361.044 497.872 361.38C498.954 361.679 500.448 361.996 502.352 362.332C504.704 362.78 506.589 363.228 508.008 363.676C509.426 364.124 510.64 364.89 511.648 365.972C512.656 367.055 513.16 368.548 513.16 370.452C513.16 373.028 512.077 375.082 509.912 376.612C507.784 378.106 504.816 378.852 501.008 378.852ZM519.894 339.372H524.598L523.758 366.812H520.678L519.894 339.372ZM522.246 378.852C521.425 378.852 520.715 378.572 520.118 378.012C519.558 377.415 519.278 376.724 519.278 375.94C519.278 375.119 519.558 374.447 520.118 373.924C520.678 373.364 521.387 373.084 522.246 373.084C523.067 373.084 523.758 373.364 524.318 373.924C524.878 374.447 525.158 375.119 525.158 375.94C525.158 376.724 524.878 377.415 524.318 378.012C523.758 378.572 523.067 378.852 522.246 378.852Z" fill="white"/>
</svg>
