<svg width="620" height="614" viewBox="0 0 620 614" fill="none" xmlns="http://www.w3.org/2000/svg">
<ellipse cx="310" cy="307" rx="310" ry="307" fill="#31C6DC"/>
<path d="M167.207 239.694C169.729 240.841 171.654 242.399 172.983 244.37C174.359 246.296 175.046 248.565 175.046 251.178C175.046 254.112 174.221 256.679 172.571 258.88C170.966 261.08 168.674 262.777 165.694 263.969C162.714 265.115 159.253 265.688 155.311 265.688C151.368 265.688 147.907 265.115 144.927 263.969C141.993 262.777 139.724 261.08 138.119 258.88C136.515 256.679 135.713 254.112 135.713 251.178C135.713 248.565 136.377 246.296 137.707 244.37C139.036 242.399 140.939 240.841 143.414 239.694C141.489 238.64 139.999 237.265 138.945 235.569C137.936 233.826 137.432 231.832 137.432 229.586C137.432 226.881 138.165 224.52 139.632 222.503C141.145 220.486 143.254 218.927 145.959 217.827C148.663 216.727 151.781 216.177 155.311 216.177C158.887 216.177 162.027 216.727 164.732 217.827C167.436 218.927 169.545 220.486 171.058 222.503C172.571 224.52 173.327 226.881 173.327 229.586C173.327 231.832 172.8 233.804 171.746 235.5C170.691 237.196 169.178 238.594 167.207 239.694ZM155.311 223.191C152.514 223.191 150.291 223.787 148.641 224.979C147.036 226.171 146.234 227.844 146.234 229.999C146.234 232.062 147.036 233.712 148.641 234.95C150.291 236.142 152.514 236.738 155.311 236.738C158.153 236.738 160.399 236.142 162.05 234.95C163.7 233.712 164.525 232.062 164.525 229.999C164.525 227.844 163.677 226.171 161.981 224.979C160.331 223.787 158.107 223.191 155.311 223.191ZM155.311 258.674C158.611 258.674 161.225 257.986 163.15 256.611C165.075 255.235 166.038 253.333 166.038 250.903C166.038 248.519 165.075 246.64 163.15 245.264C161.225 243.889 158.611 243.201 155.311 243.201C152.01 243.201 149.42 243.889 147.54 245.264C145.661 246.64 144.721 248.519 144.721 250.903C144.721 253.333 145.661 255.235 147.54 256.611C149.42 257.986 152.01 258.674 155.311 258.674ZM193.378 224.429H177.424V216.864H218.271V224.429H202.317V265H193.378V224.429ZM267.751 216.864V265H258.812V244.37H233.919V265H224.979V216.864H233.919V236.738H258.812V216.864H267.751ZM330.873 253.86H306.806L302.061 265H292.846L314.507 216.864H323.309L345.039 265H335.687L330.873 253.86ZM327.917 246.846L318.84 225.804L309.831 246.846H327.917ZM370.965 216.864C375.137 216.864 378.758 217.552 381.83 218.927C384.947 220.303 387.331 222.274 388.982 224.841C390.632 227.408 391.457 230.457 391.457 233.987C391.457 237.471 390.632 240.52 388.982 243.133C387.331 245.7 384.947 247.671 381.83 249.046C378.758 250.422 375.137 251.109 370.965 251.109H360.1V265H351.161V216.864H370.965ZM370.553 243.545C374.449 243.545 377.406 242.72 379.423 241.07C381.44 239.419 382.449 237.058 382.449 233.987C382.449 230.915 381.44 228.554 379.423 226.904C377.406 225.254 374.449 224.429 370.553 224.429H360.1V243.545H370.553ZM431.879 265L422.045 250.903C421.633 250.949 421.014 250.972 420.189 250.972H409.324V265H400.384V216.864H420.189C424.36 216.864 427.982 217.552 431.053 218.927C434.171 220.303 436.555 222.274 438.205 224.841C439.855 227.408 440.681 230.457 440.681 233.987C440.681 237.609 439.787 240.726 437.999 243.339C436.257 245.952 433.735 247.9 430.435 249.184L441.506 265H431.879ZM431.672 233.987C431.672 230.915 430.664 228.554 428.647 226.904C426.63 225.254 423.673 224.429 419.776 224.429H409.324V243.614H419.776C423.673 243.614 426.63 242.789 428.647 241.139C430.664 239.442 431.672 237.058 431.672 233.987ZM450.682 216.864H459.622V265H450.682V216.864ZM472.641 216.864H481.581V257.436H506.749V265H472.641V216.864Z" fill="#1B0551"/>
<path d="M168.259 341.826V388.572H164.185L134.134 350.641V388.572H129.192V341.826H133.266L163.384 379.757V341.826H168.259ZM213.1 372.478H183.717C183.984 376.129 185.386 379.089 187.924 381.36C190.461 383.586 193.667 384.699 197.54 384.699C199.722 384.699 201.725 384.321 203.55 383.564C205.376 382.762 206.956 381.605 208.292 380.091L210.963 383.163C209.405 385.033 207.446 386.458 205.086 387.437C202.771 388.416 200.211 388.906 197.407 388.906C193.8 388.906 190.595 388.149 187.79 386.636C185.03 385.077 182.871 382.94 181.313 380.225C179.754 377.509 178.975 374.437 178.975 371.009C178.975 367.581 179.71 364.509 181.179 361.793C182.693 359.078 184.741 356.963 187.323 355.449C189.949 353.936 192.888 353.179 196.138 353.179C199.388 353.179 202.304 353.936 204.886 355.449C207.468 356.963 209.494 359.078 210.963 361.793C212.432 364.465 213.167 367.537 213.167 371.009L213.1 372.478ZM196.138 357.252C192.754 357.252 189.905 358.343 187.59 360.525C185.319 362.662 184.028 365.466 183.717 368.939H208.626C208.314 365.466 207.001 362.662 204.686 360.525C202.415 358.343 199.566 357.252 196.138 357.252ZM241.315 386.435C240.425 387.237 239.312 387.86 237.976 388.305C236.685 388.706 235.328 388.906 233.903 388.906C230.608 388.906 228.071 388.016 226.29 386.235C224.509 384.454 223.619 381.939 223.619 378.689V357.453H217.341V353.446H223.619V345.766H228.36V353.446H239.045V357.453H228.36V378.422C228.36 380.514 228.872 382.117 229.896 383.23C230.965 384.298 232.478 384.833 234.437 384.833C235.417 384.833 236.352 384.677 237.242 384.365C238.177 384.053 238.978 383.608 239.646 383.03L241.315 386.435ZM300.849 353.446L287.56 388.572H283.085L272 359.79L260.914 388.572H256.44L243.218 353.446H247.759L258.777 383.297L270.063 353.446H274.137L285.356 383.297L296.508 353.446H300.849ZM321.368 388.906C317.984 388.906 314.934 388.149 312.219 386.636C309.503 385.077 307.366 382.94 305.808 380.225C304.25 377.509 303.471 374.437 303.471 371.009C303.471 367.581 304.25 364.509 305.808 361.793C307.366 359.078 309.503 356.963 312.219 355.449C314.934 353.936 317.984 353.179 321.368 353.179C324.751 353.179 327.801 353.936 330.516 355.449C333.232 356.963 335.347 359.078 336.861 361.793C338.419 364.509 339.198 367.581 339.198 371.009C339.198 374.437 338.419 377.509 336.861 380.225C335.347 382.94 333.232 385.077 330.516 386.636C327.801 388.149 324.751 388.906 321.368 388.906ZM321.368 384.699C323.861 384.699 326.087 384.143 328.046 383.03C330.049 381.872 331.607 380.247 332.72 378.155C333.833 376.062 334.39 373.68 334.39 371.009C334.39 368.338 333.833 365.956 332.72 363.864C331.607 361.771 330.049 360.168 328.046 359.055C326.087 357.898 323.861 357.319 321.368 357.319C318.874 357.319 316.626 357.898 314.623 359.055C312.664 360.168 311.106 361.771 309.948 363.864C308.835 365.956 308.279 368.338 308.279 371.009C308.279 373.68 308.835 376.062 309.948 378.155C311.106 380.247 312.664 381.872 314.623 383.03C316.626 384.143 318.874 384.699 321.368 384.699ZM353.419 360.324C354.532 357.965 356.179 356.184 358.361 354.982C360.587 353.78 363.325 353.179 366.575 353.179V357.787L365.439 357.72C361.744 357.72 358.85 358.855 356.758 361.126C354.665 363.396 353.619 366.579 353.619 370.675V388.572H348.878V353.446H353.419V360.324ZM388.182 370.942L379.901 378.555V388.572H375.159V339.021H379.901V372.612L400.87 353.446H406.746L391.721 367.804L408.149 388.572H402.339L388.182 370.942ZM414.745 353.446H419.486V388.572H414.745V353.446ZM417.149 345.766C416.17 345.766 415.346 345.432 414.678 344.765C414.01 344.097 413.676 343.295 413.676 342.36C413.676 341.47 414.01 340.691 414.678 340.023C415.346 339.355 416.17 339.021 417.149 339.021C418.128 339.021 418.952 339.355 419.62 340.023C420.288 340.646 420.622 341.403 420.622 342.294C420.622 343.273 420.288 344.097 419.62 344.765C418.952 345.432 418.128 345.766 417.149 345.766ZM450.576 353.179C454.984 353.179 458.478 354.47 461.061 357.052C463.687 359.59 465.001 363.307 465.001 368.204V388.572H460.259V368.672C460.259 365.021 459.346 362.239 457.521 360.324C455.696 358.41 453.091 357.453 449.708 357.453C445.924 357.453 442.919 358.588 440.693 360.859C438.511 363.085 437.42 366.179 437.42 370.141V388.572H432.679V353.446H437.22V359.924C438.511 357.787 440.292 356.139 442.562 354.982C444.877 353.78 447.549 353.179 450.576 353.179ZM510.525 353.446V384.298C510.525 390.264 509.056 394.672 506.118 397.521C503.224 400.415 498.839 401.862 492.962 401.862C489.712 401.862 486.618 401.372 483.68 400.392C480.786 399.457 478.426 398.144 476.601 396.452L479.005 392.846C480.697 394.36 482.745 395.54 485.149 396.386C487.597 397.231 490.157 397.654 492.829 397.654C497.281 397.654 500.553 396.608 502.645 394.516C504.738 392.468 505.784 389.262 505.784 384.899V380.425C504.315 382.651 502.378 384.343 499.974 385.5C497.614 386.658 494.988 387.237 492.094 387.237C488.799 387.237 485.794 386.524 483.079 385.1C480.407 383.631 478.293 381.605 476.735 379.023C475.221 376.396 474.464 373.435 474.464 370.141C474.464 366.846 475.221 363.908 476.735 361.326C478.293 358.744 480.407 356.74 483.079 355.316C485.75 353.891 488.755 353.179 492.094 353.179C495.077 353.179 497.77 353.78 500.174 354.982C502.578 356.184 504.515 357.92 505.984 360.191V353.446H510.525ZM492.561 383.03C495.099 383.03 497.392 382.495 499.44 381.427C501.488 380.314 503.068 378.778 504.181 376.819C505.339 374.86 505.917 372.634 505.917 370.141C505.917 367.648 505.339 365.444 504.181 363.53C503.068 361.571 501.488 360.057 499.44 358.989C497.436 357.876 495.144 357.319 492.561 357.319C490.024 357.319 487.731 357.853 485.683 358.922C483.68 359.99 482.099 361.504 480.942 363.463C479.829 365.422 479.272 367.648 479.272 370.141C479.272 372.634 479.829 374.86 480.942 376.819C482.099 378.778 483.68 380.314 485.683 381.427C487.731 382.495 490.024 383.03 492.561 383.03ZM264.147 465.298V469.572H231.091V422.826H263.145V427.1H236.032V443.728H260.207V447.936H236.032V465.298H264.147ZM303.561 434.446L287.934 469.572H283.059L267.499 434.446H272.441L285.597 464.363L298.886 434.446H303.561ZM339.845 453.478H310.462C310.729 457.129 312.131 460.089 314.669 462.36C317.207 464.586 320.412 465.699 324.285 465.699C326.467 465.699 328.47 465.321 330.296 464.564C332.121 463.762 333.701 462.605 335.037 461.091L337.708 464.163C336.15 466.033 334.191 467.458 331.831 468.437C329.516 469.416 326.957 469.906 324.152 469.906C320.546 469.906 317.34 469.149 314.535 467.636C311.775 466.077 309.616 463.94 308.058 461.225C306.5 458.509 305.72 455.437 305.72 452.009C305.72 448.581 306.455 445.509 307.924 442.793C309.438 440.078 311.486 437.963 314.068 436.449C316.695 434.936 319.633 434.179 322.883 434.179C326.133 434.179 329.049 434.936 331.631 436.449C334.213 437.963 336.239 440.078 337.708 442.793C339.177 445.465 339.912 448.537 339.912 452.009L339.845 453.478ZM322.883 438.252C319.499 438.252 316.65 439.343 314.335 441.525C312.065 443.662 310.773 446.466 310.462 449.939H335.371C335.059 446.466 333.746 443.662 331.431 441.525C329.16 439.343 326.311 438.252 322.883 438.252ZM367.46 434.179C371.867 434.179 375.362 435.47 377.944 438.052C380.571 440.59 381.884 444.307 381.884 449.204V469.572H377.143V449.672C377.143 446.021 376.23 443.239 374.405 441.324C372.579 439.41 369.975 438.453 366.592 438.453C362.807 438.453 359.802 439.588 357.576 441.859C355.395 444.085 354.304 447.179 354.304 451.141V469.572H349.563V434.446H354.104V440.924C355.395 438.787 357.176 437.139 359.446 435.982C361.761 434.78 364.432 434.179 367.46 434.179ZM413.255 467.435C412.364 468.237 411.251 468.86 409.916 469.305C408.625 469.706 407.267 469.906 405.842 469.906C402.548 469.906 400.01 469.016 398.229 467.235C396.448 465.454 395.558 462.939 395.558 459.689V438.453H389.281V434.446H395.558V426.766H400.299V434.446H410.984V438.453H400.299V459.422C400.299 461.514 400.811 463.117 401.835 464.23C402.904 465.298 404.417 465.833 406.376 465.833C407.356 465.833 408.291 465.677 409.181 465.365C410.116 465.053 410.917 464.608 411.585 464.03L413.255 467.435Z" fill="white"/>
</svg>
