<svg width="620" height="614" viewBox="0 0 620 614" fill="none" xmlns="http://www.w3.org/2000/svg">
<ellipse cx="310" cy="307" rx="310" ry="307" fill="#31C6DC"/>
<path d="M276.284 165L276.225 137.576L262.632 160.272H259.204L245.61 137.931V165H238.282V123.628H244.605L261.036 151.052L277.171 123.628H283.495L283.554 165H276.284ZM308.204 165.414C305.013 165.414 302.137 164.724 299.575 163.345C297.014 161.966 295.005 160.055 293.547 157.612C292.129 155.13 291.419 152.332 291.419 149.22C291.419 146.107 292.129 143.329 293.547 140.886C295.005 138.443 297.014 136.532 299.575 135.153C302.137 133.774 305.013 133.085 308.204 133.085C311.435 133.085 314.331 133.774 316.893 135.153C319.454 136.532 321.443 138.443 322.862 140.886C324.32 143.329 325.049 146.107 325.049 149.22C325.049 152.332 324.32 155.13 322.862 157.612C321.443 160.055 319.454 161.966 316.893 163.345C314.331 164.724 311.435 165.414 308.204 165.414ZM308.204 159.09C310.923 159.09 313.169 158.184 314.942 156.371C316.715 154.559 317.602 152.175 317.602 149.22C317.602 146.264 316.715 143.881 314.942 142.068C313.169 140.256 310.923 139.349 308.204 139.349C305.486 139.349 303.24 140.256 301.467 142.068C299.733 143.881 298.866 146.264 298.866 149.22C298.866 152.175 299.733 154.559 301.467 156.371C303.24 158.184 305.486 159.09 308.204 159.09ZM339.146 138.049C341.274 134.739 345.017 133.085 350.376 133.085V140.118C349.746 140 349.174 139.941 348.662 139.941C345.786 139.941 343.54 140.788 341.924 142.482C340.309 144.137 339.501 146.54 339.501 149.692V165H332.113V133.439H339.146V138.049ZM386.024 149.397C386.024 149.909 385.985 150.638 385.906 151.584H361.142C361.575 153.908 362.698 155.76 364.511 157.139C366.363 158.479 368.648 159.149 371.367 159.149C374.834 159.149 377.691 158.006 379.937 155.721L383.896 160.272C382.478 161.966 380.685 163.247 378.518 164.113C376.351 164.98 373.908 165.414 371.189 165.414C367.722 165.414 364.668 164.724 362.028 163.345C359.389 161.966 357.34 160.055 355.882 157.612C354.463 155.13 353.754 152.332 353.754 149.22C353.754 146.146 354.444 143.388 355.823 140.945C357.241 138.463 359.192 136.532 361.674 135.153C364.156 133.774 366.954 133.085 370.066 133.085C373.14 133.085 375.878 133.774 378.282 135.153C380.725 136.493 382.616 138.404 383.955 140.886C385.335 143.329 386.024 146.166 386.024 149.397ZM370.066 138.995C367.702 138.995 365.693 139.704 364.038 141.123C362.422 142.502 361.437 144.354 361.083 146.678H378.991C378.676 144.393 377.71 142.541 376.095 141.123C374.479 139.704 372.47 138.995 370.066 138.995ZM134.996 195.628H142.68V237H134.996V195.628ZM171.069 205.085C175.048 205.085 178.24 206.247 180.643 208.572C183.047 210.896 184.249 214.344 184.249 218.915V237H176.861V219.86C176.861 217.102 176.211 215.034 174.91 213.654C173.61 212.236 171.758 211.527 169.355 211.527C166.636 211.527 164.489 212.354 162.913 214.009C161.337 215.625 160.548 217.969 160.548 221.042V237H153.161V205.439H160.194V209.517C161.415 208.059 162.952 206.956 164.804 206.208C166.656 205.459 168.744 205.085 171.069 205.085ZM206.446 198.702C203.333 198.702 201.777 200.396 201.777 203.784V205.676H210.465V211.586H202.013V237H194.625V211.586H189.424V205.676H194.625V203.666C194.625 200.278 195.61 197.618 197.58 195.687C199.55 193.717 202.328 192.732 205.914 192.732C208.751 192.732 210.977 193.304 212.592 194.446L210.524 200.002C209.263 199.135 207.904 198.702 206.446 198.702ZM229.161 237.414C225.969 237.414 223.093 236.724 220.532 235.345C217.97 233.966 215.961 232.055 214.503 229.612C213.085 227.13 212.375 224.332 212.375 221.22C212.375 218.107 213.085 215.329 214.503 212.886C215.961 210.443 217.97 208.532 220.532 207.153C223.093 205.774 225.969 205.085 229.161 205.085C232.391 205.085 235.288 205.774 237.849 207.153C240.41 208.532 242.4 210.443 243.818 212.886C245.276 215.329 246.005 218.107 246.005 221.22C246.005 224.332 245.276 227.13 243.818 229.612C242.4 232.055 240.41 233.966 237.849 235.345C235.288 236.724 232.391 237.414 229.161 237.414ZM229.161 231.09C231.879 231.09 234.125 230.184 235.898 228.371C237.671 226.559 238.558 224.175 238.558 221.22C238.558 218.264 237.671 215.881 235.898 214.068C234.125 212.256 231.879 211.349 229.161 211.349C226.442 211.349 224.196 212.256 222.423 214.068C220.689 215.881 219.822 218.264 219.822 221.22C219.822 224.175 220.689 226.559 222.423 228.371C224.196 230.184 226.442 231.09 229.161 231.09ZM260.103 210.049C262.23 206.739 265.973 205.085 271.332 205.085V212.118C270.702 212 270.13 211.941 269.618 211.941C266.742 211.941 264.496 212.788 262.88 214.482C261.265 216.137 260.457 218.54 260.457 221.692V237H253.069V205.439H260.103V210.049ZM317.434 205.085C321.414 205.085 324.566 206.247 326.891 208.572C329.215 210.857 330.378 214.305 330.378 218.915V237H322.99V219.86C322.99 217.102 322.379 215.034 321.158 213.654C319.936 212.236 318.183 211.527 315.898 211.527C313.415 211.527 311.426 212.354 309.928 214.009C308.431 215.625 307.682 217.949 307.682 220.983V237H300.295V219.86C300.295 217.102 299.684 215.034 298.462 213.654C297.241 212.236 295.488 211.527 293.202 211.527C290.681 211.527 288.671 212.335 287.174 213.95C285.716 215.565 284.987 217.91 284.987 220.983V237H277.599V205.439H284.632V209.458C285.815 208.04 287.292 206.956 289.065 206.208C290.838 205.459 292.808 205.085 294.975 205.085C297.34 205.085 299.428 205.538 301.24 206.444C303.092 207.311 304.55 208.611 305.614 210.345C306.914 208.69 308.589 207.409 310.638 206.503C312.686 205.557 314.952 205.085 317.434 205.085ZM351.875 205.085C356.525 205.085 360.071 206.208 362.514 208.453C364.996 210.66 366.237 214.009 366.237 218.501V237H359.263V233.158C358.357 234.537 357.057 235.601 355.363 236.35C353.708 237.059 351.698 237.414 349.334 237.414C346.97 237.414 344.901 237.02 343.128 236.232C341.355 235.404 339.976 234.281 338.991 232.863C338.045 231.405 337.573 229.77 337.573 227.957C337.573 225.12 338.617 222.855 340.705 221.161C342.833 219.427 346.162 218.56 350.693 218.56H358.85V218.087C358.85 215.881 358.18 214.186 356.84 213.004C355.54 211.822 353.589 211.231 350.989 211.231C349.216 211.231 347.462 211.507 345.729 212.059C344.035 212.61 342.596 213.379 341.414 214.364L338.518 208.985C340.173 207.725 342.163 206.759 344.488 206.089C346.812 205.42 349.275 205.085 351.875 205.085ZM350.871 232.035C352.723 232.035 354.358 231.622 355.776 230.794C357.234 229.927 358.259 228.706 358.85 227.13V223.466H351.225C346.97 223.466 344.842 224.864 344.842 227.662C344.842 229.001 345.374 230.065 346.438 230.853C347.502 231.641 348.979 232.035 350.871 232.035ZM394.691 235.286C393.824 235.995 392.76 236.527 391.499 236.882C390.278 237.236 388.977 237.414 387.598 237.414C384.131 237.414 381.452 236.507 379.56 234.695C377.669 232.883 376.723 230.243 376.723 226.775V211.586H371.522V205.676H376.723V198.465H384.111V205.676H392.563V211.586H384.111V226.598C384.111 228.135 384.486 229.317 385.234 230.144C385.983 230.932 387.066 231.326 388.485 231.326C390.14 231.326 391.519 230.893 392.622 230.026L394.691 235.286ZM400.768 205.439H408.156V237H400.768V205.439ZM404.492 200.238C403.152 200.238 402.029 199.824 401.123 198.997C400.216 198.13 399.763 197.066 399.763 195.806C399.763 194.545 400.216 193.501 401.123 192.673C402.029 191.806 403.152 191.373 404.492 191.373C405.831 191.373 406.954 191.787 407.86 192.614C408.767 193.402 409.22 194.407 409.22 195.628C409.22 196.928 408.767 198.032 407.86 198.938C406.994 199.805 405.871 200.238 404.492 200.238ZM432.037 237.414C428.845 237.414 425.969 236.724 423.408 235.345C420.847 233.966 418.837 232.055 417.38 229.612C415.961 227.13 415.252 224.332 415.252 221.22C415.252 218.107 415.961 215.329 417.38 212.886C418.837 210.443 420.847 208.532 423.408 207.153C425.969 205.774 428.845 205.085 432.037 205.085C435.268 205.085 438.164 205.774 440.725 207.153C443.286 208.532 445.276 210.443 446.694 212.886C448.152 215.329 448.881 218.107 448.881 221.22C448.881 224.332 448.152 227.13 446.694 229.612C445.276 232.055 443.286 233.966 440.725 235.345C438.164 236.724 435.268 237.414 432.037 237.414ZM432.037 231.09C434.756 231.09 437.002 230.184 438.775 228.371C440.548 226.559 441.434 224.175 441.434 221.22C441.434 218.264 440.548 215.881 438.775 214.068C437.002 212.256 434.756 211.349 432.037 211.349C429.318 211.349 427.072 212.256 425.299 214.068C423.566 215.881 422.699 218.264 422.699 221.22C422.699 224.175 423.566 226.559 425.299 228.371C427.072 230.184 429.318 231.09 432.037 231.09ZM473.854 205.085C477.833 205.085 481.025 206.247 483.429 208.572C485.832 210.896 487.034 214.344 487.034 218.915V237H479.646V219.86C479.646 217.102 478.996 215.034 477.696 213.654C476.395 212.236 474.543 211.527 472.14 211.527C469.421 211.527 467.274 212.354 465.698 214.009C464.122 215.625 463.334 217.969 463.334 221.042V237H455.946V205.439H462.979V209.517C464.2 208.059 465.737 206.956 467.589 206.208C469.441 205.459 471.529 205.085 473.854 205.085Z" fill="#1B0551"/>
<path d="M190.856 311.237C188.8 311.237 186.824 310.908 184.927 310.249C183.056 309.59 181.606 308.72 180.578 307.64L181.725 305.387C182.726 306.388 184.057 307.205 185.717 307.838C187.377 308.444 189.09 308.747 190.856 308.747C193.333 308.747 195.191 308.299 196.429 307.403C197.668 306.481 198.287 305.295 198.287 303.845C198.287 302.738 197.945 301.856 197.26 301.197C196.601 300.538 195.784 300.037 194.809 299.695C193.834 299.326 192.477 298.931 190.737 298.509C188.655 297.982 186.995 297.481 185.757 297.007C184.518 296.506 183.451 295.755 182.555 294.754C181.685 293.752 181.25 292.395 181.25 290.682C181.25 289.285 181.619 288.021 182.357 286.887C183.095 285.728 184.228 284.806 185.757 284.12C187.285 283.435 189.182 283.093 191.449 283.093C193.03 283.093 194.572 283.317 196.074 283.765C197.602 284.186 198.92 284.779 200.027 285.543L199.038 287.876C197.879 287.111 196.64 286.545 195.323 286.176C194.005 285.781 192.714 285.583 191.449 285.583C189.024 285.583 187.193 286.057 185.954 287.006C184.742 287.928 184.136 289.127 184.136 290.603C184.136 291.71 184.465 292.606 185.124 293.291C185.809 293.95 186.653 294.464 187.654 294.833C188.682 295.175 190.052 295.557 191.765 295.979C193.794 296.48 195.428 296.98 196.667 297.481C197.932 297.955 198.999 298.693 199.868 299.695C200.738 300.67 201.173 302.001 201.173 303.687C201.173 305.084 200.791 306.362 200.027 307.521C199.289 308.655 198.142 309.564 196.588 310.249C195.033 310.908 193.122 311.237 190.856 311.237ZM217.666 290.05C219.616 290.05 221.381 290.498 222.963 291.394C224.544 292.263 225.782 293.502 226.678 295.109C227.574 296.717 228.022 298.548 228.022 300.604C228.022 302.686 227.574 304.53 226.678 306.138C225.782 307.745 224.544 308.997 222.963 309.893C221.408 310.763 219.642 311.198 217.666 311.198C215.979 311.198 214.451 310.855 213.08 310.17C211.736 309.458 210.63 308.431 209.76 307.087V318.669H206.953V290.208H209.641V294.319C210.485 292.948 211.591 291.894 212.962 291.156C214.359 290.419 215.926 290.05 217.666 290.05ZM217.468 308.707C218.918 308.707 220.235 308.378 221.421 307.719C222.607 307.034 223.529 306.072 224.188 304.833C224.873 303.595 225.216 302.185 225.216 300.604C225.216 299.023 224.873 297.626 224.188 296.414C223.529 295.175 222.607 294.213 221.421 293.528C220.235 292.843 218.918 292.5 217.468 292.5C215.992 292.5 214.662 292.843 213.476 293.528C212.316 294.213 211.394 295.175 210.709 296.414C210.05 297.626 209.72 299.023 209.72 300.604C209.72 302.185 210.05 303.595 210.709 304.833C211.394 306.072 212.316 307.034 213.476 307.719C214.662 308.378 215.992 308.707 217.468 308.707ZM251.848 301.474H234.455C234.613 303.634 235.443 305.387 236.945 306.731C238.447 308.049 240.345 308.707 242.638 308.707C243.929 308.707 245.115 308.483 246.195 308.035C247.276 307.561 248.211 306.876 249.002 305.98L250.583 307.798C249.66 308.905 248.501 309.748 247.104 310.328C245.734 310.908 244.219 311.198 242.558 311.198C240.424 311.198 238.527 310.75 236.866 309.854C235.232 308.931 233.954 307.666 233.032 306.059C232.11 304.451 231.648 302.633 231.648 300.604C231.648 298.575 232.083 296.756 232.953 295.149C233.849 293.541 235.061 292.29 236.59 291.394C238.144 290.498 239.884 290.05 241.807 290.05C243.731 290.05 245.457 290.498 246.986 291.394C248.514 292.29 249.713 293.541 250.583 295.149C251.452 296.73 251.887 298.548 251.887 300.604L251.848 301.474ZM241.807 292.461C239.805 292.461 238.118 293.107 236.748 294.398C235.404 295.663 234.64 297.323 234.455 299.378H249.199C249.015 297.323 248.237 295.663 246.867 294.398C245.523 293.107 243.837 292.461 241.807 292.461ZM266.217 311.198C264.162 311.198 262.317 310.75 260.683 309.854C259.076 308.958 257.811 307.706 256.888 306.098C255.966 304.465 255.505 302.633 255.505 300.604C255.505 298.575 255.966 296.756 256.888 295.149C257.811 293.541 259.076 292.29 260.683 291.394C262.317 290.498 264.162 290.05 266.217 290.05C268.009 290.05 269.603 290.405 271 291.117C272.423 291.802 273.543 292.817 274.36 294.161L272.265 295.584C271.58 294.556 270.71 293.792 269.656 293.291C268.602 292.764 267.456 292.5 266.217 292.5C264.715 292.5 263.358 292.843 262.146 293.528C260.96 294.187 260.024 295.136 259.339 296.374C258.68 297.613 258.351 299.023 258.351 300.604C258.351 302.211 258.68 303.634 259.339 304.873C260.024 306.085 260.96 307.034 262.146 307.719C263.358 308.378 264.715 308.707 266.217 308.707C267.456 308.707 268.602 308.457 269.656 307.956C270.71 307.456 271.58 306.691 272.265 305.664L274.36 307.087C273.543 308.431 272.423 309.458 271 310.17C269.577 310.855 267.983 311.198 266.217 311.198ZM279.873 290.208H282.68V311H279.873V290.208ZM281.296 285.662C280.717 285.662 280.229 285.464 279.834 285.069C279.439 284.674 279.241 284.199 279.241 283.646C279.241 283.119 279.439 282.658 279.834 282.262C280.229 281.867 280.717 281.67 281.296 281.67C281.876 281.67 282.364 281.867 282.759 282.262C283.154 282.631 283.352 283.079 283.352 283.606C283.352 284.186 283.154 284.674 282.759 285.069C282.364 285.464 281.876 285.662 281.296 285.662ZM297.367 283.844C296.155 283.844 295.233 284.173 294.6 284.832C293.994 285.491 293.691 286.466 293.691 287.757V290.208H300.095V292.58H293.77V311H290.963V292.58H287.248V290.208H290.963V287.638C290.963 285.741 291.504 284.239 292.584 283.132C293.691 282.025 295.246 281.472 297.249 281.472C298.039 281.472 298.803 281.59 299.541 281.828C300.279 282.038 300.898 282.355 301.399 282.776L300.45 284.871C299.633 284.186 298.606 283.844 297.367 283.844ZM307.052 290.208H309.858V311H307.052V290.208ZM308.475 285.662C307.895 285.662 307.408 285.464 307.012 285.069C306.617 284.674 306.419 284.199 306.419 283.646C306.419 283.119 306.617 282.658 307.012 282.262C307.408 281.867 307.895 281.67 308.475 281.67C309.055 281.67 309.542 281.867 309.937 282.262C310.333 282.631 310.53 283.079 310.53 283.606C310.53 284.186 310.333 284.674 309.937 285.069C309.542 285.464 309.055 285.662 308.475 285.662ZM326.321 311.198C324.266 311.198 322.421 310.75 320.787 309.854C319.18 308.958 317.915 307.706 316.992 306.098C316.07 304.465 315.609 302.633 315.609 300.604C315.609 298.575 316.07 296.756 316.992 295.149C317.915 293.541 319.18 292.29 320.787 291.394C322.421 290.498 324.266 290.05 326.321 290.05C328.113 290.05 329.707 290.405 331.104 291.117C332.527 291.802 333.647 292.817 334.464 294.161L332.369 295.584C331.684 294.556 330.814 293.792 329.76 293.291C328.706 292.764 327.56 292.5 326.321 292.5C324.819 292.5 323.462 292.843 322.25 293.528C321.064 294.187 320.128 295.136 319.443 296.374C318.784 297.613 318.455 299.023 318.455 300.604C318.455 302.211 318.784 303.634 319.443 304.873C320.128 306.085 321.064 307.034 322.25 307.719C323.462 308.378 324.819 308.707 326.321 308.707C327.56 308.707 328.706 308.457 329.76 307.956C330.814 307.456 331.684 306.691 332.369 305.664L334.464 307.087C333.647 308.431 332.527 309.458 331.104 310.17C329.681 310.855 328.087 311.198 326.321 311.198ZM361.272 309.735C360.745 310.209 360.087 310.578 359.296 310.842C358.532 311.079 357.728 311.198 356.885 311.198C354.935 311.198 353.433 310.671 352.378 309.616C351.324 308.562 350.797 307.073 350.797 305.15V292.58H347.082V290.208H350.797V285.662H353.604V290.208H359.928V292.58H353.604V304.992C353.604 306.23 353.907 307.179 354.513 307.838C355.145 308.47 356.041 308.786 357.201 308.786C357.781 308.786 358.334 308.694 358.861 308.51C359.415 308.325 359.889 308.062 360.284 307.719L361.272 309.735ZM366.382 290.208H369.188V311H366.382V290.208ZM367.805 285.662C367.225 285.662 366.737 285.464 366.342 285.069C365.947 284.674 365.749 284.199 365.749 283.646C365.749 283.119 365.947 282.658 366.342 282.262C366.737 281.867 367.225 281.67 367.805 281.67C368.384 281.67 368.872 281.867 369.267 282.262C369.662 282.631 369.86 283.079 369.86 283.606C369.86 284.186 369.662 284.674 369.267 285.069C368.872 285.464 368.384 285.662 367.805 285.662ZM402.928 290.05C405.537 290.05 407.579 290.801 409.055 292.303C410.557 293.805 411.308 296.019 411.308 298.944V311H408.502V299.22C408.502 297.059 407.975 295.412 406.921 294.279C405.893 293.146 404.43 292.58 402.533 292.58C400.372 292.58 398.672 293.252 397.434 294.595C396.195 295.913 395.576 297.745 395.576 300.09V311H392.769V299.22C392.769 297.059 392.242 295.412 391.188 294.279C390.16 293.146 388.685 292.58 386.761 292.58C384.626 292.58 382.927 293.252 381.662 294.595C380.423 295.913 379.804 297.745 379.804 300.09V311H376.997V290.208H379.685V294.003C380.423 292.738 381.451 291.763 382.768 291.077C384.086 290.392 385.601 290.05 387.314 290.05C389.054 290.05 390.556 290.419 391.821 291.156C393.112 291.894 394.074 292.988 394.706 294.437C395.47 293.067 396.564 292 397.987 291.236C399.436 290.445 401.084 290.05 402.928 290.05ZM437.101 301.474H419.708C419.866 303.634 420.696 305.387 422.199 306.731C423.701 308.049 425.598 308.707 427.891 308.707C429.182 308.707 430.368 308.483 431.448 308.035C432.529 307.561 433.464 306.876 434.255 305.98L435.836 307.798C434.914 308.905 433.754 309.748 432.357 310.328C430.987 310.908 429.472 311.198 427.812 311.198C425.677 311.198 423.78 310.75 422.119 309.854C420.486 308.931 419.208 307.666 418.285 306.059C417.363 304.451 416.902 302.633 416.902 300.604C416.902 298.575 417.336 296.756 418.206 295.149C419.102 293.541 420.314 292.29 421.843 291.394C423.398 290.498 425.137 290.05 427.061 290.05C428.984 290.05 430.71 290.498 432.239 291.394C433.767 292.29 434.966 293.541 435.836 295.149C436.706 296.73 437.14 298.548 437.14 300.604L437.101 301.474ZM427.061 292.461C425.058 292.461 423.371 293.107 422.001 294.398C420.657 295.663 419.893 297.323 419.708 299.378H434.453C434.268 297.323 433.491 295.663 432.12 294.398C430.776 293.107 429.09 292.461 427.061 292.461ZM448.427 311.198C446.74 311.198 445.119 310.96 443.565 310.486C442.036 309.985 440.837 309.366 439.967 308.628L441.232 306.415C442.102 307.1 443.196 307.666 444.513 308.114C445.831 308.536 447.201 308.747 448.624 308.747C450.522 308.747 451.918 308.457 452.814 307.877C453.737 307.271 454.198 306.428 454.198 305.347C454.198 304.583 453.947 303.99 453.447 303.569C452.946 303.121 452.314 302.791 451.549 302.58C450.785 302.343 449.771 302.119 448.506 301.908C446.819 301.592 445.462 301.276 444.434 300.96C443.406 300.617 442.524 300.05 441.786 299.26C441.074 298.469 440.718 297.376 440.718 295.979C440.718 294.24 441.443 292.817 442.893 291.71C444.342 290.603 446.358 290.05 448.94 290.05C450.284 290.05 451.628 290.234 452.972 290.603C454.316 290.946 455.423 291.407 456.293 291.987L455.067 294.24C453.355 293.054 451.312 292.461 448.94 292.461C447.148 292.461 445.791 292.777 444.869 293.41C443.973 294.042 443.525 294.872 443.525 295.9C443.525 296.691 443.775 297.323 444.276 297.797C444.803 298.272 445.449 298.627 446.213 298.865C446.977 299.075 448.031 299.299 449.375 299.537C451.035 299.853 452.366 300.169 453.368 300.485C454.369 300.802 455.226 301.342 455.937 302.106C456.649 302.87 457.004 303.924 457.004 305.268C457.004 307.087 456.24 308.536 454.712 309.616C453.21 310.671 451.115 311.198 448.427 311.198ZM196.122 338.05C198.837 338.05 200.918 338.735 202.368 340.105C203.817 341.449 204.542 343.452 204.542 346.114V359H201.854V355.759C201.221 356.839 200.286 357.682 199.047 358.288C197.835 358.895 196.386 359.198 194.699 359.198C192.38 359.198 190.535 358.644 189.165 357.537C187.795 356.431 187.11 354.968 187.11 353.15C187.11 351.384 187.742 349.961 189.007 348.881C190.298 347.8 192.341 347.26 195.134 347.26H201.735V345.995C201.735 344.203 201.235 342.846 200.233 341.924C199.232 340.975 197.769 340.5 195.845 340.5C194.528 340.5 193.263 340.724 192.051 341.172C190.838 341.594 189.798 342.187 188.928 342.951L187.663 340.856C188.717 339.96 189.982 339.275 191.458 338.801C192.934 338.3 194.488 338.05 196.122 338.05ZM195.134 356.984C196.715 356.984 198.072 356.628 199.205 355.917C200.339 355.179 201.182 354.125 201.735 352.754V349.355H195.213C191.655 349.355 189.877 350.594 189.877 353.071C189.877 354.283 190.338 355.245 191.26 355.956C192.182 356.641 193.474 356.984 195.134 356.984ZM222.759 338.05C225.367 338.05 227.436 338.814 228.965 340.342C230.519 341.844 231.297 344.045 231.297 346.944V359H228.49V347.22C228.49 345.059 227.95 343.412 226.87 342.279C225.789 341.146 224.247 340.58 222.245 340.58C220.005 340.58 218.226 341.252 216.908 342.595C215.617 343.913 214.971 345.745 214.971 348.09V359H212.165V338.208H214.853V342.042C215.617 340.777 216.671 339.802 218.015 339.117C219.385 338.405 220.967 338.05 222.759 338.05ZM257.967 329.67V359H255.279V354.889C254.436 356.286 253.316 357.353 251.919 358.091C250.549 358.829 248.994 359.198 247.255 359.198C245.305 359.198 243.539 358.75 241.958 357.854C240.377 356.958 239.138 355.706 238.242 354.098C237.346 352.491 236.898 350.659 236.898 348.604C236.898 346.548 237.346 344.717 238.242 343.109C239.138 341.502 240.377 340.263 241.958 339.394C243.539 338.498 245.305 338.05 247.255 338.05C248.942 338.05 250.457 338.405 251.801 339.117C253.171 339.802 254.291 340.817 255.161 342.161V329.67H257.967ZM247.492 356.707C248.942 356.707 250.246 356.378 251.406 355.719C252.591 355.034 253.514 354.072 254.173 352.833C254.858 351.595 255.2 350.185 255.2 348.604C255.2 347.023 254.858 345.613 254.173 344.374C253.514 343.136 252.591 342.187 251.406 341.528C250.246 340.843 248.942 340.5 247.492 340.5C246.016 340.5 244.686 340.843 243.5 341.528C242.34 342.187 241.418 343.136 240.733 344.374C240.074 345.613 239.745 347.023 239.745 348.604C239.745 350.185 240.074 351.595 240.733 352.833C241.418 354.072 242.34 355.034 243.5 355.719C244.686 356.378 246.016 356.707 247.492 356.707ZM281.703 359.198C280.016 359.198 278.395 358.96 276.841 358.486C275.312 357.985 274.113 357.366 273.243 356.628L274.508 354.415C275.378 355.1 276.472 355.666 277.789 356.114C279.107 356.536 280.477 356.747 281.9 356.747C283.798 356.747 285.194 356.457 286.09 355.877C287.013 355.271 287.474 354.428 287.474 353.347C287.474 352.583 287.223 351.99 286.723 351.569C286.222 351.121 285.59 350.791 284.825 350.58C284.061 350.343 283.047 350.119 281.782 349.908C280.095 349.592 278.738 349.276 277.71 348.96C276.682 348.617 275.8 348.05 275.062 347.26C274.35 346.469 273.994 345.376 273.994 343.979C273.994 342.24 274.719 340.817 276.169 339.71C277.618 338.603 279.634 338.05 282.216 338.05C283.56 338.05 284.904 338.234 286.248 338.603C287.592 338.946 288.699 339.407 289.569 339.987L288.343 342.24C286.631 341.054 284.588 340.461 282.216 340.461C280.424 340.461 279.067 340.777 278.145 341.41C277.249 342.042 276.801 342.872 276.801 343.9C276.801 344.691 277.051 345.323 277.552 345.797C278.079 346.272 278.725 346.627 279.489 346.865C280.253 347.075 281.307 347.299 282.651 347.537C284.312 347.853 285.642 348.169 286.644 348.485C287.645 348.802 288.502 349.342 289.213 350.106C289.925 350.87 290.28 351.924 290.28 353.268C290.28 355.087 289.516 356.536 287.988 357.616C286.486 358.671 284.391 359.198 281.703 359.198ZM304.086 359.198C302.031 359.198 300.186 358.75 298.552 357.854C296.945 356.958 295.68 355.706 294.757 354.098C293.835 352.465 293.374 350.633 293.374 348.604C293.374 346.575 293.835 344.756 294.757 343.149C295.68 341.541 296.945 340.29 298.552 339.394C300.186 338.498 302.031 338.05 304.086 338.05C305.878 338.05 307.472 338.405 308.869 339.117C310.292 339.802 311.412 340.817 312.229 342.161L310.134 343.584C309.449 342.556 308.579 341.792 307.525 341.291C306.471 340.764 305.325 340.5 304.086 340.5C302.584 340.5 301.227 340.843 300.015 341.528C298.829 342.187 297.893 343.136 297.208 344.374C296.549 345.613 296.22 347.023 296.22 348.604C296.22 350.211 296.549 351.634 297.208 352.873C297.893 354.085 298.829 355.034 300.015 355.719C301.227 356.378 302.584 356.707 304.086 356.707C305.325 356.707 306.471 356.457 307.525 355.956C308.579 355.456 309.449 354.691 310.134 353.664L312.229 355.087C311.412 356.431 310.292 357.458 308.869 358.17C307.446 358.855 305.852 359.198 304.086 359.198ZM328.027 338.05C330.636 338.05 332.705 338.814 334.233 340.342C335.788 341.844 336.566 344.045 336.566 346.944V359H333.759V347.22C333.759 345.059 333.219 343.412 332.138 342.279C331.058 341.146 329.516 340.58 327.514 340.58C325.274 340.58 323.495 341.252 322.177 342.595C320.886 343.913 320.24 345.745 320.24 348.09V359H317.434V329.67H320.24V341.844C321.004 340.632 322.059 339.697 323.403 339.038C324.746 338.379 326.288 338.05 328.027 338.05ZM362.367 349.474H344.974C345.132 351.634 345.962 353.387 347.464 354.731C348.966 356.049 350.864 356.707 353.156 356.707C354.448 356.707 355.633 356.483 356.714 356.035C357.794 355.561 358.73 354.876 359.521 353.98L361.102 355.798C360.179 356.905 359.02 357.748 357.623 358.328C356.253 358.908 354.738 359.198 353.077 359.198C350.943 359.198 349.045 358.75 347.385 357.854C345.751 356.931 344.473 355.666 343.551 354.059C342.628 352.451 342.167 350.633 342.167 348.604C342.167 346.575 342.602 344.756 343.472 343.149C344.368 341.541 345.58 340.29 347.108 339.394C348.663 338.498 350.403 338.05 352.326 338.05C354.25 338.05 355.976 338.498 357.505 339.394C359.033 340.29 360.232 341.541 361.102 343.149C361.971 344.73 362.406 346.548 362.406 348.604L362.367 349.474ZM352.326 340.461C350.323 340.461 348.637 341.107 347.267 342.398C345.923 343.663 345.158 345.323 344.974 347.378H359.718C359.534 345.323 358.756 343.663 357.386 342.398C356.042 341.107 354.355 340.461 352.326 340.461ZM387.093 329.67V359H384.405V354.889C383.561 356.286 382.441 357.353 381.045 358.091C379.674 358.829 378.119 359.198 376.38 359.198C374.43 359.198 372.664 358.75 371.083 357.854C369.502 356.958 368.264 355.706 367.368 354.098C366.472 352.491 366.024 350.659 366.024 348.604C366.024 346.548 366.472 344.717 367.368 343.109C368.264 341.502 369.502 340.263 371.083 339.394C372.664 338.498 374.43 338.05 376.38 338.05C378.067 338.05 379.582 338.405 380.926 339.117C382.296 339.802 383.416 340.817 384.286 342.161V329.67H387.093ZM376.617 356.707C378.067 356.707 379.371 356.378 380.531 355.719C381.717 355.034 382.639 354.072 383.298 352.833C383.983 351.595 384.326 350.185 384.326 348.604C384.326 347.023 383.983 345.613 383.298 344.374C382.639 343.136 381.717 342.187 380.531 341.528C379.371 340.843 378.067 340.5 376.617 340.5C375.142 340.5 373.811 340.843 372.625 341.528C371.465 342.187 370.543 343.136 369.858 344.374C369.199 345.613 368.87 347.023 368.87 348.604C368.87 350.185 369.199 351.595 369.858 352.833C370.543 354.072 371.465 355.034 372.625 355.719C373.811 356.378 375.142 356.707 376.617 356.707ZM413.645 338.208V359H410.958V355.205C410.22 356.47 409.205 357.458 407.914 358.17C406.623 358.855 405.147 359.198 403.487 359.198C400.772 359.198 398.624 358.447 397.043 356.944C395.489 355.416 394.711 353.189 394.711 350.264V338.208H397.518V349.987C397.518 352.175 398.058 353.835 399.138 354.968C400.219 356.101 401.76 356.668 403.763 356.668C405.951 356.668 407.677 356.009 408.942 354.691C410.206 353.347 410.839 351.49 410.839 349.118V338.208H413.645ZM421.506 329.67H424.312V359H421.506V329.67ZM450.226 349.474H432.833C432.991 351.634 433.821 353.387 435.323 354.731C436.825 356.049 438.723 356.707 441.016 356.707C442.307 356.707 443.493 356.483 444.573 356.035C445.654 355.561 446.589 354.876 447.38 353.98L448.961 355.798C448.039 356.905 446.879 357.748 445.482 358.328C444.112 358.908 442.597 359.198 440.937 359.198C438.802 359.198 436.905 358.75 435.244 357.854C433.61 356.931 432.332 355.666 431.41 354.059C430.488 352.451 430.027 350.633 430.027 348.604C430.027 346.575 430.461 344.756 431.331 343.149C432.227 341.541 433.439 340.29 434.968 339.394C436.522 338.498 438.262 338.05 440.185 338.05C442.109 338.05 443.835 338.498 445.364 339.394C446.892 340.29 448.091 341.541 448.961 343.149C449.831 344.73 450.265 346.548 450.265 348.604L450.226 349.474ZM440.185 340.461C438.183 340.461 436.496 341.107 435.126 342.398C433.782 343.663 433.018 345.323 432.833 347.378H447.577C447.393 345.323 446.615 343.663 445.245 342.398C443.901 341.107 442.215 340.461 440.185 340.461ZM172.579 386.208L164.713 407H162.064L155.503 389.963L148.941 407H146.292L138.466 386.208H141.154L147.676 403.877L154.356 386.208H156.767L163.408 403.877L170.01 386.208H172.579ZM184.725 407.198C182.722 407.198 180.917 406.75 179.309 405.854C177.702 404.931 176.437 403.666 175.514 402.059C174.592 400.451 174.131 398.633 174.131 396.604C174.131 394.575 174.592 392.756 175.514 391.149C176.437 389.541 177.702 388.29 179.309 387.394C180.917 386.498 182.722 386.05 184.725 386.05C186.727 386.05 188.533 386.498 190.14 387.394C191.748 388.29 192.999 389.541 193.895 391.149C194.818 392.756 195.279 394.575 195.279 396.604C195.279 398.633 194.818 400.451 193.895 402.059C192.999 403.666 191.748 404.931 190.14 405.854C188.533 406.75 186.727 407.198 184.725 407.198ZM184.725 404.707C186.2 404.707 187.518 404.378 188.677 403.719C189.863 403.034 190.786 402.072 191.444 400.833C192.103 399.595 192.433 398.185 192.433 396.604C192.433 395.023 192.103 393.613 191.444 392.374C190.786 391.136 189.863 390.187 188.677 389.528C187.518 388.843 186.2 388.5 184.725 388.5C183.249 388.5 181.918 388.843 180.732 389.528C179.573 390.187 178.65 391.136 177.965 392.374C177.306 393.613 176.977 395.023 176.977 396.604C176.977 398.185 177.306 399.595 177.965 400.833C178.65 402.072 179.573 403.034 180.732 403.719C181.918 404.378 183.249 404.707 184.725 404.707ZM219.745 386.208V407H217.057V403.205C216.32 404.47 215.305 405.458 214.014 406.17C212.722 406.855 211.247 407.198 209.586 407.198C206.872 407.198 204.724 406.447 203.143 404.944C201.588 403.416 200.811 401.189 200.811 398.264V386.208H203.618V397.987C203.618 400.175 204.158 401.835 205.238 402.968C206.319 404.101 207.86 404.668 209.863 404.668C212.05 404.668 213.776 404.009 215.041 402.691C216.306 401.347 216.939 399.49 216.939 397.118V386.208H219.745ZM227.606 377.67H230.412V407H227.606V377.67ZM257.195 377.67V407H254.507V402.889C253.664 404.286 252.544 405.353 251.147 406.091C249.777 406.829 248.222 407.198 246.483 407.198C244.533 407.198 242.767 406.75 241.186 405.854C239.605 404.958 238.366 403.706 237.47 402.098C236.574 400.491 236.126 398.659 236.126 396.604C236.126 394.548 236.574 392.717 237.47 391.109C238.366 389.502 239.605 388.263 241.186 387.394C242.767 386.498 244.533 386.05 246.483 386.05C248.17 386.05 249.685 386.405 251.029 387.117C252.399 387.802 253.519 388.817 254.389 390.161V377.67H257.195ZM246.72 404.707C248.17 404.707 249.474 404.378 250.633 403.719C251.819 403.034 252.742 402.072 253.401 400.833C254.086 399.595 254.428 398.185 254.428 396.604C254.428 395.023 254.086 393.613 253.401 392.374C252.742 391.136 251.819 390.187 250.633 389.528C249.474 388.843 248.17 388.5 246.72 388.5C245.244 388.5 243.914 388.843 242.728 389.528C241.568 390.187 240.646 391.136 239.961 392.374C239.302 393.613 238.972 395.023 238.972 396.604C238.972 398.185 239.302 399.595 239.961 400.833C240.646 402.072 241.568 403.034 242.728 403.719C243.914 404.378 245.244 404.707 246.72 404.707ZM286.069 386.05C288.019 386.05 289.785 386.498 291.366 387.394C292.947 388.263 294.186 389.502 295.082 391.109C295.978 392.717 296.426 394.548 296.426 396.604C296.426 398.659 295.978 400.491 295.082 402.098C294.186 403.706 292.947 404.958 291.366 405.854C289.785 406.75 288.019 407.198 286.069 407.198C284.33 407.198 282.762 406.829 281.365 406.091C279.995 405.353 278.888 404.286 278.045 402.889V407H275.357V377.67H278.164V390.161C279.033 388.817 280.14 387.802 281.484 387.117C282.854 386.405 284.383 386.05 286.069 386.05ZM285.872 404.707C287.321 404.707 288.639 404.378 289.825 403.719C291.01 403.034 291.933 402.072 292.592 400.833C293.277 399.595 293.619 398.185 293.619 396.604C293.619 395.023 293.277 393.613 292.592 392.374C291.933 391.136 291.01 390.187 289.825 389.528C288.639 388.843 287.321 388.5 285.872 388.5C284.396 388.5 283.065 388.843 281.879 389.528C280.72 390.187 279.797 391.136 279.112 392.374C278.453 393.613 278.124 395.023 278.124 396.604C278.124 398.185 278.453 399.595 279.112 400.833C279.797 402.072 280.72 403.034 281.879 403.719C283.065 404.378 284.396 404.707 285.872 404.707ZM320.251 397.474H302.859C303.017 399.634 303.847 401.387 305.349 402.731C306.851 404.049 308.748 404.707 311.041 404.707C312.332 404.707 313.518 404.483 314.599 404.035C315.679 403.561 316.615 402.876 317.405 401.98L318.986 403.798C318.064 404.905 316.905 405.748 315.508 406.328C314.138 406.908 312.622 407.198 310.962 407.198C308.827 407.198 306.93 406.75 305.27 405.854C303.636 404.931 302.358 403.666 301.436 402.059C300.513 400.451 300.052 398.633 300.052 396.604C300.052 394.575 300.487 392.756 301.356 391.149C302.252 389.541 303.465 388.29 304.993 387.394C306.548 386.498 308.287 386.05 310.211 386.05C312.135 386.05 313.861 386.498 315.389 387.394C316.918 388.29 318.117 389.541 318.986 391.149C319.856 392.73 320.291 394.548 320.291 396.604L320.251 397.474ZM310.211 388.461C308.208 388.461 306.522 389.107 305.151 390.398C303.807 391.663 303.043 393.323 302.859 395.378H317.603C317.418 393.323 316.641 391.663 315.271 390.398C313.927 389.107 312.24 388.461 310.211 388.461ZM339.037 390.279C339.696 388.883 340.671 387.828 341.962 387.117C343.28 386.405 344.9 386.05 346.824 386.05V388.777L346.152 388.738C343.965 388.738 342.252 389.41 341.013 390.754C339.775 392.098 339.155 393.982 339.155 396.406V407H336.349V386.208H339.037V390.279ZM369.817 397.474H352.424C352.582 399.634 353.412 401.387 354.914 402.731C356.417 404.049 358.314 404.707 360.607 404.707C361.898 404.707 363.084 404.483 364.164 404.035C365.245 403.561 366.18 402.876 366.971 401.98L368.552 403.798C367.63 404.905 366.47 405.748 365.073 406.328C363.703 406.908 362.188 407.198 360.528 407.198C358.393 407.198 356.496 406.75 354.835 405.854C353.202 404.931 351.923 403.666 351.001 402.059C350.079 400.451 349.618 398.633 349.618 396.604C349.618 394.575 350.052 392.756 350.922 391.149C351.818 389.541 353.03 388.29 354.559 387.394C356.114 386.498 357.853 386.05 359.777 386.05C361.7 386.05 363.426 386.498 364.955 387.394C366.483 388.29 367.682 389.541 368.552 391.149C369.422 392.73 369.856 394.548 369.856 396.604L369.817 397.474ZM359.777 388.461C357.774 388.461 356.087 389.107 354.717 390.398C353.373 391.663 352.609 393.323 352.424 395.378H367.168C366.984 393.323 366.207 391.663 364.836 390.398C363.492 389.107 361.806 388.461 359.777 388.461ZM375.569 377.67H378.375V407H375.569V377.67ZM404.289 397.474H386.896C387.054 399.634 387.884 401.387 389.386 402.731C390.889 404.049 392.786 404.707 395.079 404.707C396.37 404.707 397.556 404.483 398.636 404.035C399.717 403.561 400.652 402.876 401.443 401.98L403.024 403.798C402.102 404.905 400.942 405.748 399.545 406.328C398.175 406.908 396.66 407.198 395 407.198C392.865 407.198 390.968 406.75 389.307 405.854C387.674 404.931 386.395 403.666 385.473 402.059C384.551 400.451 384.09 398.633 384.09 396.604C384.09 394.575 384.524 392.756 385.394 391.149C386.29 389.541 387.502 388.29 389.031 387.394C390.586 386.498 392.325 386.05 394.249 386.05C396.172 386.05 397.898 386.498 399.427 387.394C400.955 388.29 402.154 389.541 403.024 391.149C403.894 392.73 404.328 394.548 404.328 396.604L404.289 397.474ZM394.249 388.461C392.246 388.461 390.559 389.107 389.189 390.398C387.845 391.663 387.081 393.323 386.896 395.378H401.64C401.456 393.323 400.679 391.663 399.308 390.398C397.964 389.107 396.278 388.461 394.249 388.461ZM416.735 386.05C419.45 386.05 421.531 386.735 422.981 388.105C424.43 389.449 425.155 391.452 425.155 394.114V407H422.467V403.759C421.834 404.839 420.899 405.682 419.66 406.288C418.448 406.895 416.999 407.198 415.312 407.198C412.993 407.198 411.148 406.644 409.778 405.537C408.408 404.431 407.723 402.968 407.723 401.15C407.723 399.384 408.355 397.961 409.62 396.881C410.911 395.8 412.954 395.26 415.747 395.26H422.348V393.995C422.348 392.203 421.848 390.846 420.846 389.924C419.845 388.975 418.382 388.5 416.459 388.5C415.141 388.5 413.876 388.724 412.664 389.172C411.452 389.594 410.411 390.187 409.541 390.951L408.276 388.856C409.33 387.96 410.595 387.275 412.071 386.801C413.547 386.3 415.101 386.05 416.735 386.05ZM415.747 404.984C417.328 404.984 418.685 404.628 419.818 403.917C420.952 403.179 421.795 402.125 422.348 400.754V397.355H415.826C412.268 397.355 410.49 398.594 410.49 401.071C410.49 402.283 410.951 403.245 411.873 403.956C412.795 404.641 414.087 404.984 415.747 404.984ZM438.351 407.198C436.665 407.198 435.044 406.96 433.489 406.486C431.961 405.985 430.762 405.366 429.892 404.628L431.157 402.415C432.027 403.1 433.12 403.666 434.438 404.114C435.756 404.536 437.126 404.747 438.549 404.747C440.446 404.747 441.843 404.457 442.739 403.877C443.661 403.271 444.123 402.428 444.123 401.347C444.123 400.583 443.872 399.99 443.372 399.569C442.871 399.121 442.238 398.791 441.474 398.58C440.71 398.343 439.695 398.119 438.43 397.908C436.744 397.592 435.387 397.276 434.359 396.96C433.331 396.617 432.448 396.05 431.71 395.26C430.999 394.469 430.643 393.376 430.643 391.979C430.643 390.24 431.368 388.817 432.817 387.71C434.267 386.603 436.283 386.05 438.865 386.05C440.209 386.05 441.553 386.234 442.897 386.603C444.241 386.946 445.348 387.407 446.218 387.987L444.992 390.24C443.279 389.054 441.237 388.461 438.865 388.461C437.073 388.461 435.716 388.777 434.794 389.41C433.898 390.042 433.45 390.872 433.45 391.9C433.45 392.691 433.7 393.323 434.201 393.797C434.728 394.272 435.374 394.627 436.138 394.865C436.902 395.075 437.956 395.299 439.3 395.537C440.96 395.853 442.291 396.169 443.292 396.485C444.294 396.802 445.15 397.342 445.862 398.106C446.573 398.87 446.929 399.924 446.929 401.268C446.929 403.087 446.165 404.536 444.636 405.616C443.134 406.671 441.039 407.198 438.351 407.198ZM470.222 397.474H452.829C452.987 399.634 453.817 401.387 455.319 402.731C456.822 404.049 458.719 404.707 461.012 404.707C462.303 404.707 463.489 404.483 464.569 404.035C465.65 403.561 466.585 402.876 467.376 401.98L468.957 403.798C468.035 404.905 466.875 405.748 465.478 406.328C464.108 406.908 462.593 407.198 460.933 407.198C458.798 407.198 456.901 406.75 455.24 405.854C453.607 404.931 452.328 403.666 451.406 402.059C450.484 400.451 450.023 398.633 450.023 396.604C450.023 394.575 450.457 392.756 451.327 391.149C452.223 389.541 453.435 388.29 454.964 387.394C456.519 386.498 458.258 386.05 460.182 386.05C462.105 386.05 463.831 386.498 465.36 387.394C466.888 388.29 468.087 389.541 468.957 391.149C469.827 392.73 470.261 394.548 470.261 396.604L470.222 397.474ZM460.182 388.461C458.179 388.461 456.492 389.107 455.122 390.398C453.778 391.663 453.014 393.323 452.829 395.378H467.573C467.389 393.323 466.612 391.663 465.241 390.398C463.897 389.107 462.211 388.461 460.182 388.461ZM494.948 377.67V407H492.26V402.889C491.417 404.286 490.297 405.353 488.9 406.091C487.53 406.829 485.975 407.198 484.235 407.198C482.285 407.198 480.52 406.75 478.939 405.854C477.357 404.958 476.119 403.706 475.223 402.098C474.327 400.491 473.879 398.659 473.879 396.604C473.879 394.548 474.327 392.717 475.223 391.109C476.119 389.502 477.357 388.263 478.939 387.394C480.52 386.498 482.285 386.05 484.235 386.05C485.922 386.05 487.437 386.405 488.781 387.117C490.152 387.802 491.272 388.817 492.141 390.161V377.67H494.948ZM484.473 404.707C485.922 404.707 487.227 404.378 488.386 403.719C489.572 403.034 490.494 402.072 491.153 400.833C491.838 399.595 492.181 398.185 492.181 396.604C492.181 395.023 491.838 393.613 491.153 392.374C490.494 391.136 489.572 390.187 488.386 389.528C487.227 388.843 485.922 388.5 484.473 388.5C482.997 388.5 481.666 388.843 480.48 389.528C479.321 390.187 478.398 391.136 477.713 392.374C477.054 393.613 476.725 395.023 476.725 396.604C476.725 398.185 477.054 399.595 477.713 400.833C478.398 402.072 479.321 403.034 480.48 403.719C481.666 404.378 482.997 404.707 484.473 404.707ZM155.042 455.198C152.987 455.198 151.142 454.75 149.508 453.854C147.901 452.958 146.636 451.706 145.713 450.098C144.791 448.465 144.33 446.633 144.33 444.604C144.33 442.575 144.791 440.756 145.713 439.149C146.636 437.541 147.901 436.29 149.508 435.394C151.142 434.498 152.987 434.05 155.042 434.05C156.834 434.05 158.428 434.405 159.825 435.117C161.248 435.802 162.368 436.817 163.185 438.161L161.09 439.584C160.405 438.556 159.535 437.792 158.481 437.291C157.427 436.764 156.281 436.5 155.042 436.5C153.54 436.5 152.183 436.843 150.971 437.528C149.785 438.187 148.849 439.136 148.164 440.374C147.505 441.613 147.176 443.023 147.176 444.604C147.176 446.211 147.505 447.634 148.164 448.873C148.849 450.085 149.785 451.034 150.971 451.719C152.183 452.378 153.54 452.707 155.042 452.707C156.281 452.707 157.427 452.457 158.481 451.956C159.535 451.456 160.405 450.691 161.09 449.664L163.185 451.087C162.368 452.431 161.248 453.458 159.825 454.17C158.402 454.855 156.808 455.198 155.042 455.198ZM168.39 425.67H171.196V455H168.39V425.67ZM187.504 455.198C185.501 455.198 183.696 454.75 182.088 453.854C180.481 452.931 179.216 451.666 178.294 450.059C177.371 448.451 176.91 446.633 176.91 444.604C176.91 442.575 177.371 440.756 178.294 439.149C179.216 437.541 180.481 436.29 182.088 435.394C183.696 434.498 185.501 434.05 187.504 434.05C189.507 434.05 191.312 434.498 192.919 435.394C194.527 436.29 195.779 437.541 196.675 439.149C197.597 440.756 198.058 442.575 198.058 444.604C198.058 446.633 197.597 448.451 196.675 450.059C195.779 451.666 194.527 452.931 192.919 453.854C191.312 454.75 189.507 455.198 187.504 455.198ZM187.504 452.707C188.98 452.707 190.297 452.378 191.457 451.719C192.643 451.034 193.565 450.072 194.224 448.833C194.883 447.595 195.212 446.185 195.212 444.604C195.212 443.023 194.883 441.613 194.224 440.374C193.565 439.136 192.643 438.187 191.457 437.528C190.297 436.843 188.98 436.5 187.504 436.5C186.028 436.5 184.697 436.843 183.512 437.528C182.352 438.187 181.43 439.136 180.745 440.374C180.086 441.613 179.756 443.023 179.756 444.604C179.756 446.185 180.086 447.595 180.745 448.833C181.43 450.072 182.352 451.034 183.512 451.719C184.697 452.378 186.028 452.707 187.504 452.707ZM209.362 455.198C207.675 455.198 206.054 454.96 204.5 454.486C202.971 453.985 201.772 453.366 200.902 452.628L202.167 450.415C203.037 451.1 204.131 451.666 205.448 452.114C206.766 452.536 208.136 452.747 209.559 452.747C211.457 452.747 212.853 452.457 213.749 451.877C214.672 451.271 215.133 450.428 215.133 449.347C215.133 448.583 214.882 447.99 214.382 447.569C213.881 447.121 213.249 446.791 212.484 446.58C211.72 446.343 210.706 446.119 209.441 445.908C207.754 445.592 206.397 445.276 205.369 444.96C204.341 444.617 203.459 444.05 202.721 443.26C202.009 442.469 201.653 441.376 201.653 439.979C201.653 438.24 202.378 436.817 203.828 435.71C205.277 434.603 207.293 434.05 209.875 434.05C211.219 434.05 212.563 434.234 213.907 434.603C215.251 434.946 216.358 435.407 217.228 435.987L216.002 438.24C214.29 437.054 212.247 436.461 209.875 436.461C208.083 436.461 206.726 436.777 205.804 437.41C204.908 438.042 204.46 438.872 204.46 439.9C204.46 440.691 204.71 441.323 205.211 441.797C205.738 442.272 206.384 442.627 207.148 442.865C207.912 443.075 208.966 443.299 210.31 443.537C211.97 443.853 213.301 444.169 214.303 444.485C215.304 444.802 216.161 445.342 216.872 446.106C217.584 446.87 217.939 447.924 217.939 449.268C217.939 451.087 217.175 452.536 215.647 453.616C214.145 454.671 212.05 455.198 209.362 455.198ZM241.232 445.474H223.839C223.997 447.634 224.828 449.387 226.33 450.731C227.832 452.049 229.729 452.707 232.022 452.707C233.313 452.707 234.499 452.483 235.579 452.035C236.66 451.561 237.595 450.876 238.386 449.98L239.967 451.798C239.045 452.905 237.885 453.748 236.489 454.328C235.118 454.908 233.603 455.198 231.943 455.198C229.808 455.198 227.911 454.75 226.251 453.854C224.617 452.931 223.339 451.666 222.416 450.059C221.494 448.451 221.033 446.633 221.033 444.604C221.033 442.575 221.468 440.756 222.337 439.149C223.233 437.541 224.445 436.29 225.974 435.394C227.529 434.498 229.268 434.05 231.192 434.05C233.115 434.05 234.842 434.498 236.37 435.394C237.898 436.29 239.098 437.541 239.967 439.149C240.837 440.73 241.272 442.548 241.272 444.604L241.232 445.474ZM231.192 436.461C229.189 436.461 227.502 437.107 226.132 438.398C224.788 439.663 224.024 441.323 223.839 443.378H238.584C238.399 441.323 237.622 439.663 236.251 438.398C234.907 437.107 233.221 436.461 231.192 436.461ZM249.672 438.279C250.331 436.883 251.306 435.828 252.597 435.117C253.915 434.405 255.536 434.05 257.459 434.05V436.777L256.787 436.738C254.6 436.738 252.887 437.41 251.649 438.754C250.41 440.098 249.791 441.982 249.791 444.406V455H246.984V434.208H249.672V438.279ZM284.145 453.735C283.618 454.209 282.959 454.578 282.168 454.842C281.404 455.079 280.6 455.198 279.757 455.198C277.807 455.198 276.305 454.671 275.251 453.616C274.197 452.562 273.67 451.073 273.67 449.15V436.58H269.954V434.208H273.67V429.662H276.476V434.208H282.801V436.58H276.476V448.992C276.476 450.23 276.779 451.179 277.385 451.838C278.018 452.47 278.914 452.786 280.073 452.786C280.653 452.786 281.206 452.694 281.733 452.51C282.287 452.325 282.761 452.062 283.157 451.719L284.145 453.735ZM297.019 455.198C295.016 455.198 293.211 454.75 291.604 453.854C289.996 452.931 288.731 451.666 287.809 450.059C286.887 448.451 286.425 446.633 286.425 444.604C286.425 442.575 286.887 440.756 287.809 439.149C288.731 437.541 289.996 436.29 291.604 435.394C293.211 434.498 295.016 434.05 297.019 434.05C299.022 434.05 300.827 434.498 302.435 435.394C304.042 436.29 305.294 437.541 306.19 439.149C307.112 440.756 307.573 442.575 307.573 444.604C307.573 446.633 307.112 448.451 306.19 450.059C305.294 451.666 304.042 452.931 302.435 453.854C300.827 454.75 299.022 455.198 297.019 455.198ZM297.019 452.707C298.495 452.707 299.812 452.378 300.972 451.719C302.158 451.034 303.08 450.072 303.739 448.833C304.398 447.595 304.727 446.185 304.727 444.604C304.727 443.023 304.398 441.613 303.739 440.374C303.08 439.136 302.158 438.187 300.972 437.528C299.812 436.843 298.495 436.5 297.019 436.5C295.543 436.5 294.213 436.843 293.027 437.528C291.867 438.187 290.945 439.136 290.26 440.374C289.601 441.613 289.271 443.023 289.271 444.604C289.271 446.185 289.601 447.595 290.26 448.833C290.945 450.072 291.867 451.034 293.027 451.719C294.213 452.378 295.543 452.707 297.019 452.707ZM334.598 453.735C334.071 454.209 333.412 454.578 332.622 454.842C331.857 455.079 331.054 455.198 330.21 455.198C328.26 455.198 326.758 454.671 325.704 453.616C324.65 452.562 324.123 451.073 324.123 449.15V436.58H320.407V434.208H324.123V429.662H326.93V434.208H333.254V436.58H326.93V448.992C326.93 450.23 327.233 451.179 327.839 451.838C328.471 452.47 329.367 452.786 330.527 452.786C331.106 452.786 331.66 452.694 332.187 452.51C332.74 452.325 333.215 452.062 333.61 451.719L334.598 453.735ZM350.301 434.05C352.91 434.05 354.979 434.814 356.507 436.342C358.062 437.844 358.839 440.045 358.839 442.944V455H356.033V443.22C356.033 441.059 355.492 439.412 354.412 438.279C353.332 437.146 351.79 436.58 349.787 436.58C347.547 436.58 345.768 437.252 344.451 438.595C343.159 439.913 342.514 441.745 342.514 444.09V455H339.707V425.67H342.514V437.844C343.278 436.632 344.332 435.697 345.676 435.038C347.02 434.379 348.562 434.05 350.301 434.05ZM384.64 445.474H367.247C367.406 447.634 368.236 449.387 369.738 450.731C371.24 452.049 373.137 452.707 375.43 452.707C376.721 452.707 377.907 452.483 378.988 452.035C380.068 451.561 381.004 450.876 381.794 449.98L383.375 451.798C382.453 452.905 381.293 453.748 379.897 454.328C378.526 454.908 377.011 455.198 375.351 455.198C373.216 455.198 371.319 454.75 369.659 453.854C368.025 452.931 366.747 451.666 365.824 450.059C364.902 448.451 364.441 446.633 364.441 444.604C364.441 442.575 364.876 440.756 365.745 439.149C366.641 437.541 367.854 436.29 369.382 435.394C370.937 434.498 372.676 434.05 374.6 434.05C376.524 434.05 378.25 434.498 379.778 435.394C381.307 436.29 382.506 437.541 383.375 439.149C384.245 440.73 384.68 442.548 384.68 444.604L384.64 445.474ZM374.6 436.461C372.597 436.461 370.911 437.107 369.54 438.398C368.196 439.663 367.432 441.323 367.247 443.378H381.992C381.807 441.323 381.03 439.663 379.66 438.398C378.316 437.107 376.629 436.461 374.6 436.461ZM419.712 425.67V455H417.024V450.889C416.18 452.286 415.06 453.353 413.664 454.091C412.293 454.829 410.739 455.198 408.999 455.198C407.049 455.198 405.284 454.75 403.702 453.854C402.121 452.958 400.883 451.706 399.987 450.098C399.091 448.491 398.643 446.659 398.643 444.604C398.643 442.548 399.091 440.717 399.987 439.109C400.883 437.502 402.121 436.263 403.702 435.394C405.284 434.498 407.049 434.05 408.999 434.05C410.686 434.05 412.201 434.405 413.545 435.117C414.915 435.802 416.035 436.817 416.905 438.161V425.67H419.712ZM409.236 452.707C410.686 452.707 411.99 452.378 413.15 451.719C414.336 451.034 415.258 450.072 415.917 448.833C416.602 447.595 416.945 446.185 416.945 444.604C416.945 443.023 416.602 441.613 415.917 440.374C415.258 439.136 414.336 438.187 413.15 437.528C411.99 436.843 410.686 436.5 409.236 436.5C407.761 436.5 406.43 436.843 405.244 437.528C404.085 438.187 403.162 439.136 402.477 440.374C401.818 441.613 401.489 443.023 401.489 444.604C401.489 446.185 401.818 447.595 402.477 448.833C403.162 450.072 404.085 451.034 405.244 451.719C406.43 452.378 407.761 452.707 409.236 452.707ZM434.801 434.05C437.516 434.05 439.597 434.735 441.047 436.105C442.496 437.449 443.221 439.452 443.221 442.114V455H440.533V451.759C439.9 452.839 438.965 453.682 437.726 454.288C436.514 454.895 435.065 455.198 433.378 455.198C431.059 455.198 429.214 454.644 427.844 453.537C426.474 452.431 425.789 450.968 425.789 449.15C425.789 447.384 426.421 445.961 427.686 444.881C428.977 443.8 431.02 443.26 433.813 443.26H440.414V441.995C440.414 440.203 439.914 438.846 438.912 437.924C437.911 436.975 436.448 436.5 434.524 436.5C433.207 436.5 431.942 436.724 430.73 437.172C429.517 437.594 428.477 438.187 427.607 438.951L426.342 436.856C427.396 435.96 428.661 435.275 430.137 434.801C431.613 434.3 433.167 434.05 434.801 434.05ZM433.813 452.984C435.394 452.984 436.751 452.628 437.884 451.917C439.018 451.179 439.861 450.125 440.414 448.754V445.355H433.892C430.334 445.355 428.556 446.594 428.556 449.071C428.556 450.283 429.017 451.245 429.939 451.956C430.861 452.641 432.153 452.984 433.813 452.984ZM461.793 453.735C461.266 454.209 460.607 454.578 459.817 454.842C459.053 455.079 458.249 455.198 457.406 455.198C455.455 455.198 453.953 454.671 452.899 453.616C451.845 452.562 451.318 451.073 451.318 449.15V436.58H447.602V434.208H451.318V429.662H454.125V434.208H460.449V436.58H454.125V448.992C454.125 450.23 454.428 451.179 455.034 451.838C455.666 452.47 456.562 452.786 457.722 452.786C458.302 452.786 458.855 452.694 459.382 452.51C459.935 452.325 460.41 452.062 460.805 451.719L461.793 453.735ZM484.273 445.474H466.88C467.039 447.634 467.869 449.387 469.371 450.731C470.873 452.049 472.77 452.707 475.063 452.707C476.354 452.707 477.54 452.483 478.621 452.035C479.701 451.561 480.637 450.876 481.427 449.98L483.008 451.798C482.086 452.905 480.926 453.748 479.53 454.328C478.159 454.908 476.644 455.198 474.984 455.198C472.849 455.198 470.952 454.75 469.292 453.854C467.658 452.931 466.38 451.666 465.457 450.059C464.535 448.451 464.074 446.633 464.074 444.604C464.074 442.575 464.509 440.756 465.378 439.149C466.274 437.541 467.487 436.29 469.015 435.394C470.57 434.498 472.309 434.05 474.233 434.05C476.157 434.05 477.883 434.498 479.411 435.394C480.94 436.29 482.139 437.541 483.008 439.149C483.878 440.73 484.313 442.548 484.313 444.604L484.273 445.474ZM474.233 436.461C472.23 436.461 470.543 437.107 469.173 438.398C467.829 439.663 467.065 441.323 466.88 443.378H481.625C481.44 441.323 480.663 439.663 479.293 438.398C477.949 437.107 476.262 436.461 474.233 436.461ZM490.302 455.198C489.722 455.198 489.221 454.987 488.8 454.565C488.405 454.144 488.207 453.63 488.207 453.024C488.207 452.417 488.405 451.917 488.8 451.521C489.221 451.1 489.722 450.889 490.302 450.889C490.882 450.889 491.382 451.1 491.804 451.521C492.226 451.917 492.437 452.417 492.437 453.024C492.437 453.63 492.226 454.144 491.804 454.565C491.382 454.987 490.882 455.198 490.302 455.198Z" fill="white"/>
</svg>
